<?xml version="1.0" encoding="utf-8"?>
<!-- Uploaded to: SVG Repo, www.svgrepo.com, Generator: SVG Repo Mixer Tools -->
<svg width="800px" height="800px" viewBox="-2.84 0 384.885 384.885" xmlns="http://www.w3.org/2000/svg"><defs><style>.a{fill:#ffffff;}.b{fill:#7a7473;}.c{fill:#211715;}.d{fill:#f4b467;}.e{fill:#89705d;}.f{fill:#8acc89;}.g{fill:#cfcfcf;}</style></defs><path class="a" d="M66.348,382.567c0-14.28.12-24.531.137-34.389-6.6,7.8-16.039,13.516-21.911,14.275-9.01,1.16-17.4-3.01-22.58-10.46-6.422-9.262-7.291-22.861-6.044-34.212.025-.156.157-1.028.157-1.028,1.945-12.812,4.612-21.186,8.612-33.51,3.155-9.72,11.1-29.849,13.821-35.737,2.542-5.5,8.559-16.728,14.678-21.9,6.293-5.321,18.612-10.807,30.168-14.658l109.046-5.1,8.583,1.837c5.334,1.482,13.926,2.963,20.87,5.585,6.769,2.555,10.952,4.387,15.75,8.3a56.231,56.231,0,0,1,17.583,24.073c3.065,7.691,5.936,16.886,8.32,24.779,2.482,8.216,5.26,16.406,7.976,24.554l19.916,49.039c-.9,6.12-7.23,14.09-10.01,16.08-9.66,6.93-22.21,3.2-26.84.73-7.046-3.731-13.348-11.195-18.027-21.68.136,16.637.494,34.51.494,43.418Z"/><path class="a" d="M214.412,103.326a9.3,9.3,0,0,1,7.44-2.177,8.781,8.781,0,0,1,6.312,4.2,12.4,12.4,0,0,1,1.3,4.993,37.191,37.191,0,0,1-3.792,19.717,23.649,23.649,0,0,1-6.114,8.023,15.655,15.655,0,0,1-7.288,3.286l-1.248.193c-.6,2.238-1.271,4.124-1.6,5.126-2.4,6.518-17.292,31.185-34.991,35.118l-37.2,1.721c-11.717-1.147-22.2-7.708-31.022-18.261a63.25,63.25,0,0,1-12.055-23.533l-2.376-.364a15.659,15.659,0,0,1-7.289-3.286,23.624,23.624,0,0,1-6.113-8.023,37.192,37.192,0,0,1-3.793-19.717,12.4,12.4,0,0,1,1.3-4.993,8.779,8.779,0,0,1,6.312-4.2,9.3,9.3,0,0,1,7.439,2.177S68.571,44.132,146.2,44.132,214.412,103.326,214.412,103.326Z"/><path class="b" d="M135.022,3.021c-13.9,1.586-28.206,6.588-39.8,18.257l5.55,4.738c-9.46,5.844-16.888,17.167-20.3,27.19-4.016,11.793-5.215,28.575-.447,48.4l.035.145a8.74,8.74,0,0,1,2.137-.6,9.3,9.3,0,0,1,7.439,2.177l7.973-4.748.656-.391C115.12,82.412,124.52,75.88,139.629,64.01c.091,1.053,3.46,9.474,4.249,9.8.971.395,10.71-5.626,18.636-10.524l13.378,1.627C182.037,66.252,187.8,69.591,193,74.06c9.2,7.92,16.608,19.39,21.121,29.593a9.107,9.107,0,0,1,7.734-2.5,8.765,8.765,0,0,1,1.62.4c4.623-11.875,5.3-29.078-.538-45.4-4.1-11.477-13.89-23.477-21.606-26.852l-9.108-6.492c-8.94-12.246-23.84-19.754-42.912-20.337A99.337,99.337,0,0,0,135.022,3.021Z"/><path class="c" d="M216.109,105.023a6.86,6.86,0,0,1,7.911-.575c2.894,1.754,3.111,5.242,3.17,8.309A33.688,33.688,0,0,1,221.114,133a14.784,14.784,0,0,1-9.484,6.054A2.42,2.42,0,0,0,209.954,142a2.456,2.456,0,0,0,2.953,1.676c9.238-1.569,14.722-10.244,17.313-18.549a39.025,39.025,0,0,0,1.721-13.693c-.253-4.526-1.5-8.828-5.659-11.231a11.791,11.791,0,0,0-13.567,1.423,2.421,2.421,0,0,0,0,3.394,2.449,2.449,0,0,0,3.394,0Z"/><path class="c" d="M91.331,101.629a11.747,11.747,0,0,0-11.978-2.171,11.279,11.279,0,0,0-4.949,3.775A13.133,13.133,0,0,0,72.25,109.7a37.874,37.874,0,0,0,6.537,25.722c3.011,4.141,7.208,7.386,12.353,8.26A2.471,2.471,0,0,0,94.092,142a2.419,2.419,0,0,0-1.676-2.952c-7.126-1.211-11.3-7.551-13.542-13.935A35.1,35.1,0,0,1,76.858,114.3c-.071-3.057-.178-7.017,2.308-9.227a6.841,6.841,0,0,1,8.771-.047,2.461,2.461,0,0,0,3.394,0,2.421,2.421,0,0,0,0-3.394Z"/><path class="c" d="M200.117,31.373a29.775,29.775,0,0,1,9.48,7.458,57.82,57.82,0,0,1,8.492,12.243c4.96,9.516,6.931,20.754,6.6,31.419a57.779,57.779,0,0,1-2.716,16.134c-.956,2.945,3.677,4.207,4.629,1.276,3.4-10.459,3.63-21.849,1.747-32.621a63.3,63.3,0,0,0-14.064-30.369c-3.238-3.813-7.126-7.612-11.749-9.684a2.474,2.474,0,0,0-3.284.861,2.417,2.417,0,0,0,.861,3.283Z"/><path class="c" d="M105.321,21.15c-11.08,4.142-19.3,14.18-24.334,24.572C76.038,55.938,74.3,67.373,74.545,78.654a112.431,112.431,0,0,0,3.164,23.592c.716,3,5.345,1.732,4.628-1.276C77.163,79.259,77.555,54.4,92.565,36.5c3.786-4.515,8.443-8.636,14.032-10.726a2.465,2.465,0,0,0,1.676-2.952,2.419,2.419,0,0,0-2.952-1.676Z"/><path class="c" d="M194.292,21.6C185.857,10.133,173,3.23,159.061,1.006a88.848,88.848,0,0,0-22.1-.584A78.376,78.376,0,0,0,115.8,5.163,64.159,64.159,0,0,0,93.524,19.581c-2.188,2.187,1.206,5.582,3.394,3.395C107.009,12.89,120.368,7.191,134.439,5.49c13.4-1.621,27.814-.845,40.018,5.4a44.6,44.6,0,0,1,15.69,13.133,2.474,2.474,0,0,0,3.284.861,2.419,2.419,0,0,0,.861-3.284Z"/><path class="c" d="M165.318,58.733c-5.373,3.3-10.7,6.676-16.151,9.844-1.051.611-2.107,1.215-3.179,1.788-.433.232-.869.46-1.312.676-.158.077-.319.15-.477.227-.55.267.189-.038-.1.045a1.617,1.617,0,0,0-.322.113c-.243.139-.345-.079-.008.031.283.093,1.9.736,1.654.529.331.276.255.393.036,0-.464-.834-.879-1.687-1.268-2.559-.506-1.136-.909-2.127-1.4-3.425-.2-.526-.393-1.055-.568-1.59-.1-.3-.334-1.481-.2-.4a2.44,2.44,0,0,0-4.1-1.7c-10.62,8.339-21.437,16.413-31.6,25.316q-5.3,4.641-10.422,9.473c-2.258,2.118,1.142,5.507,3.394,3.394,10.4-9.754,21.342-18.767,32.616-27.48q4.713-3.641,9.406-7.309l-4.1-1.7a26.567,26.567,0,0,0,2.347,6.755c.775,1.821,1.733,5.064,4.023,5.409,1.876.282,4-1.212,5.562-2.072,2.816-1.551,5.565-3.225,8.309-4.9,3.432-2.095,6.844-4.223,10.271-6.326,2.628-1.613.22-5.766-2.423-4.144Z"/><path class="c" d="M175.254,67.223c8.815,1.992,16.114,7.832,22.036,14.433a88.7,88.7,0,0,1,14.3,22.188,2.419,2.419,0,0,0,3.284.861,2.455,2.455,0,0,0,.861-3.283A95.572,95.572,0,0,0,204.5,82.865a63.951,63.951,0,0,0-16.459-15.439,37.689,37.689,0,0,0-11.513-4.832c-3.008-.68-4.292,3.947-1.276,4.629Z"/><path class="a" d="M276.1,347.675c-3.321.063-6.3-.308-7.886-1.1a14.33,14.33,0,0,1-6.015-6.335c-6.352-15.363-1.286-31.074,10.4-44.076,2.283-3.152,5.366-6.66,7.535-9.317.419-.513,17.755-28.066,17.757-29.631a19.034,19.034,0,0,0,.8-1.9,49.17,49.17,0,0,0,3.071-13.2c.328-5.709-1.036-11.578.511-17.083a33.373,33.373,0,0,1,4.539-8.848c3.583-5.543,5.589-12.421,9.171-17.963,1.327-2.052,4.771-3.035,7.193-2.712,2.261.3,4.586,1.617,4.829,4.453q-.129,2.805-.451,5.6l10.208-.988a33.387,33.387,0,0,1,8.148.667c9.328,1.665,10.024,9.389,10.525,12.2a129.167,129.167,0,0,1,1.564,15.974,46.3,46.3,0,0,1-.67,10.278c-1.042,4.87-1.543,7.3-4.8,12.176-3.835,6.107-17.58,8.758-23.753,9.907a5.484,5.484,0,0,0-3.189,1.648c-1.836,2.544-5.358,14.39-7.607,21.963-3.986,12.847-13.625,39.581-26.63,53.554C289.351,346.011,282.155,347.562,276.1,347.675Z"/><path class="c" d="M279.042,142.335a4.71,4.71,0,0,0,.6.35c-.269-.072-.22-.2-.086-.045.058.066.274.216.286.305,0-.01-.264-.4-.062-.068.049.081.1.158.147.24l.067.124c.094.2.085.168-.028-.091a1.115,1.115,0,0,1,.133.4c.025.091.041.184.065.275.116.441,0-.327-.007-.043,0,.063.049.615-.011.631-.016,0,.116-.484,0-.073-.03.106-.05.215-.082.321-.026.085-.058.167-.084.252-.125.4.187-.324-.011.01-.114.193-.225.385-.345.575-.237.376.22-.231.022-.029-.08.082-.151.172-.23.254-.064.066-.131.13-.2.192-.024.022-.351.34-.117.114s-.1.068-.138.093c-.119.08-.24.154-.365.224-.083.047-.172.087-.254.135-.416.24.4-.121-.058.03-.19.061-.376.128-.569.178-.261.068-.527.119-.792.169-.111.02-.223.037-.334.058-.233.035-.223.034.029,0-.083.01-.167.019-.251.026-.249.023-.5.038-.75.039-.137,0-.274,0-.411-.011-.154-.009-.447.062-.036.013a2.113,2.113,0,0,1-.707-.164c-.115-.036-.428-.191-.052,0-.148-.074-.293-.147-.435-.235,0,0-.442-.314-.184-.115s-.12-.113-.137-.128c-.069-.065-.136-.132-.2-.2-.023-.024-.327-.369-.11-.111s-.05-.085-.074-.123c-.046-.073-.089-.148-.13-.223-.022-.041-.215-.422-.062-.1.145.3-.025-.1-.046-.17-.028-.1-.047-.2-.074-.3-.089-.32.029.124.015.174a3.452,3.452,0,0,0-.019-.6,1.22,1.22,0,0,0,.017-.237l-.04.3c.013-.077.028-.155.046-.231a2.786,2.786,0,0,0,.171-.563c.017.287-.179.35-.035.1.049-.085.091-.173.142-.257.04-.067.086-.13.126-.2.2-.335-.259.231-.063.079.159-.124.287-.312.436-.452.091-.085.19-.162.28-.248q.169-.14-.113.081c.079-.059.16-.117.241-.172a6.888,6.888,0,0,1,.632-.382c.109-.057.222-.106.33-.163.135-.062.088-.043-.14.055.091-.036.183-.071.276-.1a6.973,6.973,0,0,1,.707-.207c.12-.028.24-.053.362-.075.073-.014.146-.026.219-.037q-.393.051-.163.027c.274-.01.546-.036.821-.031.126,0,.251.008.377.017.069,0,.562.09.262.023l.186.042c.151.032.3.068.451.109.1.028.2.058.3.089s.731.28.261.079a2.194,2.194,0,0,0,1.541.2,2,2,0,0,0,.478-3.656,9.373,9.373,0,0,0-8.543.319,6.555,6.555,0,0,0-3.459,6.737c.508,3.119,3.557,5.054,6.558,5.045a8.763,8.763,0,0,0,7.535-3.575c1.826-2.776,1.069-7.047-2.091-8.526a2.048,2.048,0,0,0-2.737.718A2.024,2.024,0,0,0,279.042,142.335Z"/><path class="c" d="M268.794,105.934c-.439-.042-.073-.009.045.02.135.032.265.085.4.117-.33-.08-.129-.067-.018,0s.244.132.363.207c.092.059.369.293.07.035.085.073.169.147.25.226.1.1.189.21.289.308s.075.085-.051-.072c.049.069.1.139.14.211.076.12.139.245.21.367.054.089.111.334,0-.016.082.268.155.523.213.8-.016-.075-.026-.426-.013-.052,0,.134.014.267.014.4s-.013.268-.018.4c-.015.42.1-.332-.02.11-.067.238-.115.477-.2.712-.036.105-.193.436-.014.061-.048.1-.1.2-.148.3a7.344,7.344,0,0,1-.447.722c.045-.065.245-.282-.006,0-.115.131-.231.261-.355.386-.083.083-.169.165-.256.243-.036.033-.5.379-.155.139-.209.147-.424.283-.643.415-.31.187-.624.368-.945.535-.128.066-.258.127-.386.193-.354.181.032.011-.31.137a8,8,0,0,1-1.006.308c-.132.03-.272.062-.408.079.331-.042-.109-.006-.188,0a4.5,4.5,0,0,1-.519-.012c.292.025-.043-.006-.094-.018-.155-.038-.309-.075-.462-.122-.06-.019-.551-.213-.314-.1.276.126-.192-.1-.2-.108-.091-.05-.182-.1-.269-.158-.017-.011-.418-.3-.169-.106s-.119-.115-.135-.13c-.07-.066-.138-.134-.2-.2-.023-.025-.3-.388-.116-.124s-.069-.116-.085-.141c-.073-.117-.133-.242-.2-.361-.135-.229-.062.031.034.1-.056-.042-.09-.25-.112-.321a4.833,4.833,0,0,1-.141-.591c.036-.01.023.5.016.064,0-.111-.011-.223-.011-.335,0-.089,0-.179.009-.268.029-.479.017,0-.009,0s.151-.609.163-.647c.028-.085.062-.167.092-.252-.148.416-.06.139-.009.046.135-.246.257-.5.406-.735.059-.094.121-.187.184-.279.087-.126.311-.387.086-.126a9.276,9.276,0,0,1,.677-.725c.08-.076.162-.15.245-.222.053-.047.478-.35.111-.1a9.7,9.7,0,0,1,1.583-.909c-.368.159-.089.039-.011.015.161-.05.319-.111.481-.159.329-.1.66-.164,1-.232.094-.019.38-.027-.019,0,.174-.012.346-.032.521-.041a9.646,9.646,0,0,1,1.062.013,2.01,2.01,0,0,0,2-2,2.047,2.047,0,0,0-2-2,10.355,10.355,0,0,0-8.259,3.281c-2.046,2.289-2.97,5.3-1.664,8.192,1.417,3.141,5.218,4.421,8.4,3.5,3.222-.939,6.417-3.275,7.22-6.685a6.877,6.877,0,0,0-.8-5.325,6.474,6.474,0,0,0-4.9-2.958,2.008,2.008,0,0,0-2,2A2.054,2.054,0,0,0,268.794,105.934Z"/><path class="c" d="M252.4,132.729c.109.025.219.066.328.088.261.052-.41-.243-.04-.02.123.074.394.156.461.285l-.191-.143c.069.06.135.122.2.187a1.728,1.728,0,0,0,.186.2c-.134-.024-.2-.31-.062-.078.072.118.149.231.215.353.052.1.1.4.071.136-.028-.3.016.085.034.151a1.352,1.352,0,0,0,.062.266c-.123-.163-.025-.378-.018-.13.006.221.006.434,0,.655-.017.383-.005-.139.019-.142-.013,0-.073.332-.088.385-.029.106-.071.21-.1.316-.074.27.232-.437.023-.047-.085.159-.164.32-.26.474-.06.1-.128.188-.191.283-.155.235.332-.344.011-.027-.166.164-.33.331-.5.494-.329.32.256-.157.011,0-.1.065-.2.138-.3.2a5.544,5.544,0,0,1-.519.282c-.125.06-.253.113-.378.17-.31.14.436-.152-.094.034-.277.1-.55.2-.832.282a6.967,6.967,0,0,1-.842.19c.427-.068-.155,0-.313,0,0,0-.556-.022-.238,0s-.218-.05-.234-.054c-.111-.028-.219-.065-.329-.1-.515-.161.312.19-.072-.035a4.427,4.427,0,0,1-.567-.346c.013-.024.373.337.109.076-.058-.057-.121-.11-.179-.168s-.129-.159-.2-.221c-.193-.163.26.415.065.077a2.915,2.915,0,0,0-.28-.5c.205.216.135.37.075.166-.031-.107-.069-.212-.1-.32-.018-.072-.03-.145-.048-.216-.077-.313.031.171.025.2a4.2,4.2,0,0,0-.015-.547,1.647,1.647,0,0,0,.016-.218c.046.418-.058.354,0,.1.035-.159.107-.314.136-.471.047-.249-.236.463-.055.127.034-.064.065-.13.1-.194a1.97,1.97,0,0,1,.372-.579c-.03.019-.295.349-.049.065.094-.108.187-.216.285-.32.165-.171.343-.325.518-.485.343-.31-.259.166-.012.01.139-.088.272-.187.413-.273.2-.122.413-.229.626-.333.341-.168-.063.011-.085.033a1.221,1.221,0,0,1,.4-.143,6.784,6.784,0,0,1,.767-.195c.169-.033.383-.168-.03-.007a1.6,1.6,0,0,1,.437-.038,7.326,7.326,0,0,1,.741,0c.125.007.249.022.374.03.152.017.1.009-.156-.022.1.016.2.034.3.054a2,2,0,1,0,1.063-3.857,8.981,8.981,0,0,0-7.883,2.1,6.284,6.284,0,0,0-2,6.557,5.947,5.947,0,0,0,2.467,3.106,6.482,6.482,0,0,0,4.619.793,8.341,8.341,0,0,0,6.645-5.064,5.733,5.733,0,0,0-3.845-7.493,2,2,0,1,0-1.063,3.857Z"/><path class="c" d="M10.236,156.827c-.534-.209.227.089.285.2-.009-.017-.345-.316-.067-.04.069.068.14.132.207.2.035.037.267.393.121.134-.156-.277.075.139.087.161s.136.258.138.258q-.138-.351-.058-.143c.026.068.05.136.071.206.037.116.054.237.091.352.086.267,0-.487,0-.03a3.254,3.254,0,0,0-.012.558c-.1-.065.11-.482,0-.092-.029.1-.049.21-.079.314-.024.085-.056.167-.08.251-.126.428.2-.384-.005.019-.094.184-.189.366-.3.541-.045.072-.123.252-.2.291.023-.013.3-.357.05-.07-.144.162-.288.32-.446.469a1.163,1.163,0,0,1-.273.24l.173-.132c-.079.058-.16.115-.242.169-.189.123-.393.215-.584.333-.251.154.449-.141-.01.008-.1.032-.194.068-.292.1a14.41,14.41,0,0,1-1.679.395c-.1.018-.376.015.018,0-.114.006-.228.022-.342.028-.284.017-.56,0-.844,0-.121,0-.339-.089.035.009-.107-.028-.218-.043-.326-.07-.135-.034-.265-.086-.4-.123s-.106-.036.088.04c-.078-.037-.155-.077-.229-.12-.119-.067-.232-.143-.349-.214-.322-.194-.018.012.035.04a2.761,2.761,0,0,1-.517-.491c-.226-.224.092.086.062.091a1.682,1.682,0,0,1-.143-.216,2.356,2.356,0,0,0-.152-.275c-.1-.117.12.436.015.025a3.245,3.245,0,0,0-.126-.521c.153.325.031.385.035.181,0-.1,0-.195,0-.292a1.817,1.817,0,0,0,.021-.292c.007.051-.1.493-.013.184a2.194,2.194,0,0,0,.17-.566c.031.262-.183.355-.031.1.051-.087.095-.179.147-.265.042-.07.09-.135.132-.205.216-.359-.253.28-.042.05.282-.307.642-.856,1.033-1.026-.363.158-.1.077.02-.011s.251-.172.381-.253c.237-.148.484-.27.731-.4s.007-.084-.062.019a1.7,1.7,0,0,1,.426-.156,6.83,6.83,0,0,1,.729-.2,2.742,2.742,0,0,1,.447-.081c-.337.015-.163.024.073.011a6.732,6.732,0,0,1,.765,0,1.355,1.355,0,0,1,.308.026c-.452-.17-.055,0,.085.026a7.166,7.166,0,0,1,.921.263,2.012,2.012,0,0,0,2.46-1.4,2.048,2.048,0,0,0-1.4-2.46,8.83,8.83,0,0,0-8.009,1.236A8.236,8.236,0,0,0,.61,157.17a5.732,5.732,0,0,0-.431,3.958c.811,3.008,4.013,4.681,6.975,4.39,2.9-.284,5.779-1.469,7.174-4.2a6.106,6.106,0,0,0,.55-4.576A5.869,5.869,0,0,0,11.3,152.97a2.007,2.007,0,0,0-2.46,1.4A2.059,2.059,0,0,0,10.236,156.827Z"/><path class="c" d="M47.631,147.512c.265.3-.191-.32-.065-.086.045.084.1.168.145.249.095.158-.009.212-.064-.161a3.044,3.044,0,0,1,.143.561c-.021-.042-.034-.509-.037-.183,0,.078,0,.155,0,.234s-.007.156-.015.233l.039-.3a3.331,3.331,0,0,0-.153.563c-.008-.041.224-.443.06-.159-.038.066-.072.134-.112.2s-.26.334-.034.073-.018.012-.057.054-.1.108-.156.159-.109.1-.166.15l.229-.173c-.161.07-.319.22-.477.305-.064.035-.144.063-.2.1.339-.229.323-.121.159-.067-.186.061-.368.123-.561.167-.075.016-.16.023-.232.045.524-.159.238-.028.054-.018-.207.012-.408,0-.613-.006-.162,0-.272-.1.158.028-.076-.023-.17-.031-.25-.047a10.809,10.809,0,0,1-1.2-.309q-.147-.048-.291-.1c-.289-.107-.06-.144.083.04-.075-.1-.317-.153-.43-.217-.086-.05-.171-.1-.253-.157-.27-.179.009-.12.07.066a1.97,1.97,0,0,0-.424-.415c.293.208.187.261.058.064-.063-.095-.121-.194-.175-.294a2.49,2.49,0,0,0-.119-.243c.222.315.1.275.062.114-.023-.1-.058-.2-.081-.3-.069-.314.1-.114.007.116a2.13,2.13,0,0,0,0-.576c.012.483-.064.356-.019.2.03-.105.06-.214.087-.321.036-.142.167-.266-.083.171.036-.062.063-.132.1-.195.043-.08.089-.158.139-.234.138-.213.189-.083-.089.1a3.35,3.35,0,0,0,.378-.384c.226-.217-.116.108-.15.114.067-.012.165-.108.227-.144a1.379,1.379,0,0,0,.238-.126c-.2.19-.371.14-.159.068a8.749,8.749,0,0,1,1.137-.295c-.632.127-.03.019.164.016a5.3,5.3,0,0,0,.7.032c-.03,0-.516-.087-.186-.022.115.023.229.044.343.071a5.481,5.481,0,0,1,.562.165c.053.018.417.168.091.028s.075.04.139.073a5.786,5.786,0,0,1,.57.331c.067.045.132.093.2.137.338.226-.3-.269-.02-.011.184.171.367.336.538.519a2.017,2.017,0,0,0,2.829,0,2.043,2.043,0,0,0,0-2.828,7.748,7.748,0,0,0-6.226-2.468,6.611,6.611,0,0,0-3.248,1.064,5.224,5.224,0,0,0-2.13,3.076,5.394,5.394,0,0,0,.691,4.015,6.212,6.212,0,0,0,3.037,2.4c2.127.869,4.769,1.059,6.734-.324a5.389,5.389,0,0,0,2.318-3.321,5.115,5.115,0,0,0-1.176-4.439,2.012,2.012,0,0,0-2.829,0A2.049,2.049,0,0,0,47.631,147.512Z"/><path class="c" d="M18.766,126.359c-.337-.4.2.218.189.347,0-.021-.148-.447-.029-.059.03.1.062.192.087.29l.035.148c.041.226.04.2,0-.08a1.141,1.141,0,0,1,.019.305c0,.1-.007.2,0,.306.021.441.1-.319,0,.078a3.055,3.055,0,0,1-.214.733c.211-.384-.055.056-.145.2-.018.028-.315.385-.107.161s-.124.123-.137.136c-.069.072-.141.142-.215.209-.159.145-.337.238-.064.064-.216.137-.433.261-.652.392-.084.05-.348.141.056-.012-.1.037-.193.075-.291.108-.252.085-.5.137-.762.2-.122.029-.317.129.056,0a1.707,1.707,0,0,1-.486.03,5.845,5.845,0,0,1-.826-.041c.434.053-.136-.045-.291-.081a13.666,13.666,0,0,1-1.522-.433c-.012,0-.5-.182-.2-.069s-.171-.08-.187-.088c-.183-.089-.364-.186-.539-.292-.108-.066-.209-.143-.317-.208-.251-.149.327.32-.013-.012-.182-.178-.361-.351-.529-.542.287.326.062.069,0-.035-.079-.126-.144-.26-.221-.388-.044-.073-.139-.351-.014,0-.038-.106-.077-.211-.109-.318-.039-.13-.058-.268-.1-.4-.091-.282,0,.466,0-.014,0-.1-.011-.2-.01-.306,0-.075,0-.151.008-.226q.018-.231-.032.162a3.131,3.131,0,0,0,.178-.707c.079-.282.067.055-.038.078.013,0,.11-.218.131-.254.058-.1.131-.2.187-.3.134-.246-.324.336-.011.01.075-.077.5-.4.5-.495-.01.127-.306.2-.066.059.1-.059.2-.127.3-.184a1.185,1.185,0,0,1,.315-.16c-.371.061-.189.074-.056.034.249-.076.49-.162.743-.223.1-.024.2-.046.3-.065.076-.015.151-.028.227-.04q.228-.036-.152.02c0-.006.709-.04.762-.04.128,0,.255,0,.382.011s.7.007.151,0a5.531,5.531,0,0,1,1.484.38c.472.149-.253-.134.023,0,.139.07.282.133.419.206a7.618,7.618,0,0,1,.741.446c.087.06.173.122.259.185-.371-.272.014.021.093.091a8.537,8.537,0,0,1,.694.691,2.014,2.014,0,0,0,2.828,0,2.045,2.045,0,0,0,0-2.829,9.551,9.551,0,0,0-7.684-3.156,8.055,8.055,0,0,0-3.965,1.259,6.259,6.259,0,0,0-2.553,3.633,6.687,6.687,0,0,0,3.947,7.513c2.747,1.227,6.088,1.711,8.735-.046a6.394,6.394,0,0,0,2.845-3.976,6.068,6.068,0,0,0-1.325-5.227,2.01,2.01,0,0,0-2.828,0A2.053,2.053,0,0,0,18.766,126.359Z"/><path class="c" d="M43.4,104.749c.04.118.077.234.106.355l.017.071c.041.225.038.193-.009-.094a1.258,1.258,0,0,1-.006.591l.032-.238c-.013.073-.028.146-.046.219-.029.121-.071.238-.1.358-.083.314.008-.083.033-.061a2.912,2.912,0,0,1-.214.395,1.2,1.2,0,0,1-.166.249c.327-.276.07-.1-.023,0-.065.068-.182.23-.271.256.031-.009.379-.249.042-.04-.121.076-.384.306-.528.3l.2-.079c-.071.028-.142.055-.215.078a4.545,4.545,0,0,1-.442.127,1.979,1.979,0,0,1-.38.074c.066,0,.443-.028.067-.023-.237,0-.475-.011-.711-.009-.306,0,.467.114-.026,0-.106-.025-.212-.043-.318-.07s-.212-.056-.316-.089c-.15-.046-.463-.178-.146-.035a7.753,7.753,0,0,1-1.288-.773c-.108-.077-.214-.157-.321-.235-.257-.185.348.309-.032-.03-.2-.175-.4-.341-.584-.526-.165-.164-.314-.34-.469-.513-.2-.221.233.393-.008-.023-.05-.087-.111-.169-.162-.256s-.094-.179-.145-.266c-.239-.406.064.268-.008-.011-.032-.123-.081-.243-.113-.367s-.083-.579-.039-.1a5.2,5.2,0,0,1-.025-.624,1.181,1.181,0,0,1,.018-.3l-.033.244c.012-.071.026-.14.042-.209.025-.113.079-.513.183-.593-.094.072-.174.334-.033.113.07-.109.138-.226.2-.339.205-.358-.235.2-.038.044a3.058,3.058,0,0,0,.219-.235c.061-.06.126-.115.188-.174.27-.258-.088.1-.105.077s.512-.306.544-.324c.254-.145-.055.112-.131.049.008.007.338-.112.359-.118.08-.023.164-.037.245-.061.4-.118-.364,0-.1,0,.2.007.408-.023.611-.018.1,0,.2.007.3.014.035,0,.509.067.171.011s.134.03.165.036c.143.029.284.063.424.1.106.029.6.27.686.227-.09.043-.337-.162-.079-.032.129.066.26.126.387.2a6.835,6.835,0,0,1,.617.378c.023.016.389.309.148.1s.145.132.189.171a7.325,7.325,0,0,1,.567.575,1.8,1.8,0,0,1,.192.226c-.144-.191-.173-.227-.086-.11.044.061.088.122.13.183.142.208.273.424.394.645.06.112.118.226.173.341.226.472-.075-.219.071.164a2.045,2.045,0,0,0,2.46,1.4,2.022,2.022,0,0,0,1.4-2.46,9.427,9.427,0,0,0-5.768-5.734,6.65,6.65,0,0,0-7.236,1.588,6.049,6.049,0,0,0-1.473,3.969,6.757,6.757,0,0,0,1.673,4.322,10.737,10.737,0,0,0,3.2,2.555,7.591,7.591,0,0,0,4.683.8c3.421-.5,6.1-4.066,4.921-7.5a2,2,0,0,0-3.857,1.063Z"/><path class="d" d="M332.8,172.514c-7.471-13.872-12.434-27.272-13.421-42.9-.566-8.947-.053-21.894,4.715-29.486,6.314-10.053,16.222-11.732,31.546-11.286,14.25.415,22.546,14.286,21.067,27.59-1.1,9.875-1.368,16.372-11.18,25.392-9.642,8.866-14.192,18.717-17.223,32.046Z"/><path class="c" d="M209.773,134.443a36.872,36.872,0,0,1-2.271,10.423c-.153.46-.306.92-.47,1.375-.088.246-.2.483-.02.072q-.139.326-.286.646c-.423.926-.887,1.833-1.37,2.729a83.562,83.562,0,0,1-10.731,15.393,61.463,61.463,0,0,1-8.919,8.5,2.476,2.476,0,0,0-.861,3.283,2.415,2.415,0,0,0,3.283.861,76.43,76.43,0,0,0,15.97-16.984c2.995-4.231,6.074-8.849,7.762-13.795a43.253,43.253,0,0,0,2.713-12.5c.1-3.09-4.7-3.086-4.8,0Z"/><path class="c" d="M89.838,133.444A74.5,74.5,0,0,0,99.283,159.7c5.367,8.771,13.137,16.693,22.289,21.5a42.907,42.907,0,0,0,15.659,4.724,2.416,2.416,0,0,0,2.4-2.4,2.454,2.454,0,0,0-2.4-2.4c-18.851-1.939-33.517-18.8-39.428-35.789a83.239,83.239,0,0,1-3.337-13.166,2.419,2.419,0,0,0-2.952-1.676,2.454,2.454,0,0,0-1.676,2.952Z"/><path class="c" d="M152.14,125.043a56.23,56.23,0,0,1,1.326,6.068l-.085-.638a3.663,3.663,0,0,1,.022.837l.086-.638a2.034,2.034,0,0,1-.092.377l.242-.573a1.163,1.163,0,0,1-.082.166q.447-.526.2-.274.574-.413.193-.188c-.086.045-.173.087-.262.127l.574-.242a3.524,3.524,0,0,1-.811.236l.638-.086a3.22,3.22,0,0,1-.76,0l.638.086c-.286-.04-.568-.11-.855-.149a2.655,2.655,0,0,0-1.849.242,2.4,2.4,0,0,0-.861,3.284,2.3,2.3,0,0,0,1.434,1.1c.59.079,1.162.231,1.761.257a5.489,5.489,0,0,0,2.514-.586,3.48,3.48,0,0,0,1.972-2.308,6.067,6.067,0,0,0-.03-2.566c-.33-1.955-.782-3.892-1.284-5.81a2.4,2.4,0,0,0-4.629,1.276Z"/><path class="c" d="M170.293,106.224a27.94,27.94,0,0,0,10.413-9.967,2.4,2.4,0,0,0-4.145-2.423c-.283.465-.578.921-.889,1.366-.163.234-.331.463-.5.692-.26.351.23-.287.044-.055-.081.1-.16.2-.242.3a25.391,25.391,0,0,1-2.209,2.394q-.561.537-1.156,1.037c-.217.183-.44.36-.662.539s.406-.3.056-.044l-.312.231a25.581,25.581,0,0,1-2.82,1.781,2.422,2.422,0,0,0-.861,3.284,2.45,2.45,0,0,0,3.283.861Z"/><path class="c" d="M186.161,118.463c-4.873,1.771-11.89,1.592-15.12-2.754-.916-1.233-.46-3.569.588-4.574a4.934,4.934,0,0,1,3.674-1.041h7.844c1.922,0,4.412.377,4.986,2.923C188.664,115.373,187.882,117.837,186.161,118.463Z"/><path class="c" d="M119.8,118.463c4.872,1.771,11.89,1.592,15.119-2.754.916-1.233.46-3.569-.588-4.574a4.93,4.93,0,0,0-3.673-1.041h-7.845c-1.922,0-4.411.377-4.985,2.923C117.293,115.373,118.075,117.837,119.8,118.463Z"/><path class="c" d="M156.1,106.16v5.349a2.477,2.477,0,0,0,.7,1.7,2.4,2.4,0,0,0,4.1-1.7V106.16a2.474,2.474,0,0,0-.7-1.7,2.4,2.4,0,0,0-4.1,1.7Z"/><path class="c" d="M147.214,106.16v5.349a2.473,2.473,0,0,0,.7,1.7,2.4,2.4,0,0,0,4.1-1.7V106.16a2.475,2.475,0,0,0-.7-1.7,2.4,2.4,0,0,0-4.1,1.7Z"/><path class="a" d="M344.323,204.334c.444-7.723.921-13.655,1.365-21.36a46.072,46.072,0,0,1-13.353-1.578c-.552,5.207-1.825,19.871-2.129,23.733Z"/><path class="c" d="M334.943,243.131c2.763-.12,5.529-.227,8.3-.229a2.4,2.4,0,0,0,0-4.8c-2.766,0-5.532.109-8.3.229a2.4,2.4,0,1,0,0,4.8Z"/><path class="c" d="M334.572,225.1a8.819,8.819,0,0,0-7.633,5.049c-1.758,3.878-.8,8.851,2.756,11.344a10.838,10.838,0,0,0,5.248,1.636,2.407,2.407,0,0,0,2.4-2.4,2.465,2.465,0,0,0-2.4-2.4,1.707,1.707,0,0,0-.393-.042c-.022,0,.562.089.309.041-.065-.013-.132-.021-.2-.032-.287-.048-.572-.108-.853-.182-.261-.068-.516-.153-.771-.24-.442-.15.2.106.075.038s-.283-.134-.421-.209a5.576,5.576,0,0,0-.683-.433s.388.335.219.165c-.047-.048-.1-.089-.155-.134q-.179-.163-.342-.342c-.067-.073-.4-.4-.127-.138.257.24-.033-.067-.1-.176-.079-.129-.148-.262-.22-.394-.253-.468.081.305-.038-.079a9.96,9.96,0,0,1-.272-.992c-.047-.236-.043-.516-.026-.1-.01-.235-.039-.47-.047-.706s-.009-.486,0-.729c0-.093.019-.188.019-.281,0-.276-.008.16-.034.183.134-.121.2-.883.263-1.087a.914.914,0,0,1,.083-.233c.022-.008-.222.442-.084.2.078-.136.138-.284.216-.421s.16-.263.241-.394c.281-.452-.223.227.031-.056a8.548,8.548,0,0,1,.605-.629c.088-.081.262-.176.323-.277,0,0-.415.292-.209.165.078-.048.15-.106.226-.157a6.984,6.984,0,0,1,.8-.461c.057-.028.115-.053.172-.082.291-.151-.172.092-.233.1a1.876,1.876,0,0,0,.389-.141c.242-.078.487-.128.734-.187.438-.106-.512,0-.212.028.109.009.229-.011.339-.009a2.4,2.4,0,0,0,0-4.8Z"/><path class="c" d="M345.089,225.139c-3.5-.15-7.011,0-10.517-.037a2.4,2.4,0,0,0,0,4.8c3.506.034,7.013-.113,10.517.037a2.417,2.417,0,0,0,2.4-2.4,2.451,2.451,0,0,0-2.4-2.4Z"/><path class="c" d="M334.235,213.293a8.216,8.216,0,0,0-6.435,6.757,8.976,8.976,0,0,0,2.884,8.135,7.731,7.731,0,0,0,3.25,1.631,2.4,2.4,0,0,0,1.276-4.629,4.756,4.756,0,0,1-.513-.13c-.108-.034-.213-.077-.32-.113-.344-.118.585.288.241.1-.2-.11-.4-.206-.6-.328-.087-.055-.17-.119-.257-.173-.321-.2.487.448.062.041-.179-.173-.352-.346-.524-.526-.37-.389.281.428.039.058-.069-.106-.143-.209-.209-.317-.091-.149-.176-.3-.253-.461l-.059-.123q-.153-.343.079.188a5.088,5.088,0,0,0-.3-1.009,1.483,1.483,0,0,1-.086-.481q.07.538.028.127c-.01-.12-.018-.239-.023-.358-.008-.188-.01-.376-.008-.563,0-.078-.007-.82,0-.429.009.363.055-.254.083-.358.015-.057.083-.448.151-.476q-.213.48-.048.125.071-.145.15-.285c.08-.139.168-.27.257-.4q.228-.312-.087.11c.067-.08.137-.158.208-.235.107-.113.219-.223.334-.328.077-.07.155-.137.235-.2-.264.2-.324.245-.179.14.154-.084.3-.2.446-.3.129-.078.261-.151.395-.221.089-.045.178-.089.269-.13q-.522.212-.167.071a8.7,8.7,0,0,1,.947-.279,2.419,2.419,0,0,0,1.677-2.952,2.455,2.455,0,0,0-2.953-1.676Z"/><path class="c" d="M342.763,213.4c-2.628-.131-5.258-.212-7.89-.193a2.4,2.4,0,1,0,0,4.8c2.632-.019,5.262.062,7.89.193a2.417,2.417,0,0,0,2.4-2.4,2.453,2.453,0,0,0-2.4-2.4Z"/><path class="c" d="M336.085,213.535c-.329-.191-.667-.366-.993-.56-.176-.1-.349-.211-.518-.325-.026-.018-.289-.231-.1-.068.216.182-.251-.261-.243-.252a1.949,1.949,0,0,1-.388-.7,4.765,4.765,0,0,1-.2-2.046c.338-2.58,3.816-2.641,5.773-2.625,3.055.023,6.586.261,9.347,1.688a8.555,8.555,0,0,1,4.011,4.195c.057.114.265.614.119.248q.12.3.227.611c.147.422.274.85.386,1.282.192.736.333,1.484.46,2.234.51,3,.918,6,1.159,9.035.522,6.577.819,12.935-.691,19.4a25.336,25.336,0,0,1-3.352,8.021,11.942,11.942,0,0,1-4.82,4.412c-4.5,2.465-9.691,3.673-14.681,4.7-2.3.474-4.832.653-6.778,2.091-1.82,1.346-2.588,3.769-3.367,5.8-2.129,5.548-3.769,11.29-5.461,16.981A208.233,208.233,0,0,1,304.4,317.9a120.858,120.858,0,0,1-9.189,16.3,60.906,60.906,0,0,1-5.136,6.579c-.284.313-.554.623-.81.959-.269.352.268-.242-.063.078-.136.131-.27.266-.4.4-.256.253.206-.1-.235.185a11.777,11.777,0,0,1-2.389,1.211,31.769,31.769,0,0,1-13.911,1.532c-.117-.012-.689-.083-.521-.059s-.365-.063-.471-.083a12.627,12.627,0,0,1-1.3-.3c-.175-.052-.345-.116-.518-.17-.432-.137.332.2-.029-.015a12.278,12.278,0,0,1-1.96-1.309c-2.525-2.212-3.625-4.9-4.488-8.09a34.035,34.035,0,0,1,.57-19.23c2.1-6.627,5.946-12.451,10.449-17.681,2.329-2.706,4.47-5.606,6.76-8.353a27.383,27.383,0,0,0,2.066-2.726c1.645-2.564,3.257-5.15,4.866-7.736,3.969-6.378,8.154-12.733,11.609-19.411a6.928,6.928,0,0,0,.989-2.75l-.328,1.212a44.728,44.728,0,0,0,4.225-19.8,83.949,83.949,0,0,1-.16-9.98,20.251,20.251,0,0,1,3.224-8.678c1.569-2.586,3.183-5.078,4.5-7.813,1.374-2.865,2.584-5.807,4.009-8.648,1.072-2.138,1.94-4.578,4.37-5.324,1.641-.5,3.935-.638,5.066.813.775,1,.326,2.614.23,3.792-.147,1.826-.354,3.646-.637,5.456a84.136,84.136,0,0,1-2.655,11.5c-.9,2.961,3.729,4.227,4.628,1.276a87.149,87.149,0,0,0,3.187-15.408c.271-2.337.885-5.192.121-7.474a7.111,7.111,0,0,0-3.937-4.247,10.6,10.6,0,0,0-11.282,1.943,21.292,21.292,0,0,0-3.427,5.64c-1.055,2.14-2,4.33-2.993,6.5a59.633,59.633,0,0,1-3.241,6.288c-1.244,2.036-2.606,3.99-3.656,6.141-2.3,4.7-2.554,9.582-2.3,14.729a58.881,58.881,0,0,1,.078,7.688,37.515,37.515,0,0,1-1.492,7.389c-.35,1.2-.736,2.395-1.138,3.581-.183.539-.358,1.084-.579,1.609-.086.2-.192.405-.282.607l-.242.573q-.149,1.1-.045.347c.2-.228.045-.281-.073.058.3-.864.049-.135-.1.161-1.9,3.834-4.246,7.476-6.465,11.126q-4.038,6.645-8.186,13.222c-.778,1.236-1.55,2.478-2.351,3.7a2.777,2.777,0,0,0-.232.352c-.066.151-.342.9.311-.394a8.253,8.253,0,0,1-1.07,1.295c-1.484,1.779-2.985,3.544-4.429,5.357a129.755,129.755,0,0,0-8.678,11.394,49,49,0,0,0-5.624,12.345,37.892,37.892,0,0,0,1.558,26.053,14.916,14.916,0,0,0,8.328,7.667,25.069,25.069,0,0,0,8.533.782,36.826,36.826,0,0,0,9.778-1.6,16.8,16.8,0,0,0,3.982-1.79,15.017,15.017,0,0,0,2.876-2.73,91.71,91.71,0,0,0,12.878-19.6c6.655-13,11.377-26.734,15.625-40.663,1.114-3.652,2.244-7.308,3.569-10.891a22.422,22.422,0,0,1,1.418-3.359,4.42,4.42,0,0,1,.321-.559c.2-.269.015-.015-.02.016.2-.18-.925.38.3-.232a7.25,7.25,0,0,1,1.941-.61c6.459-1.231,13.15-2.611,18.972-5.8a18.42,18.42,0,0,0,7.319-7.41,34,34,0,0,0,3.748-11.091,52.728,52.728,0,0,0,.5-12.65,131.049,131.049,0,0,0-1.52-14.338c-.909-5.294-3.016-10.246-8.248-12.576a27.981,27.981,0,0,0-13.411-1.95c-4.356.411-8.3,3.261-8.238,7.97a8.168,8.168,0,0,0,1.854,5.367,11.109,11.109,0,0,0,2.972,2.124c2.676,1.555,5.1-2.592,2.423-4.144Z"/><path class="c" d="M334.305,238.417a6.934,6.934,0,0,0-3.907,4.324,11.506,11.506,0,0,0-.356,6.274,7.324,7.324,0,0,0,3.194,4.413,10.335,10.335,0,0,0,6.039,1.306c1.1-.026,2.2-.124,3.3-.259.642-.078,1.283-.167,1.924-.254l.287-.04c.179-.024.495-.171.018,0a3.711,3.711,0,0,1,.731-.092,2.461,2.461,0,0,0,2.4-2.4c-.053-1.173-1.065-2.559-2.4-2.4-.644.077-1.287.165-1.93.253l-.575.078c.637-.086-.241.031-.353.045-1.012.126-2.028.223-3.047.26-.568.021-1.136.026-1.7.009-.287-.009-.574-.021-.86-.056.631.077-.181-.061-.3-.093-.177-.048-.348-.11-.522-.164q-.375-.145.085.038-.156-.073-.306-.156c-.148-.081-.286-.178-.431-.263q-.318-.228.091.079c-.083-.069-.163-.141-.242-.215-.133-.126-.245-.29-.383-.406-.114-.138-.07-.08.134.174-.061-.085-.119-.173-.173-.262a4,4,0,0,1-.292-.552c.028-.017.185.526.026-.013a6.124,6.124,0,0,1-.139-.614c.117.624,0-.18-.007-.317a11.666,11.666,0,0,1,.036-1.63c.058-.665-.113.46.032-.173.058-.255.108-.509.181-.76.06-.209.138-.411.206-.617q.1-.252-.07.162c.048-.1.1-.208.153-.31.035-.064.275-.566.343-.562q-.306.379-.137.175.072-.087.15-.171c.067-.072.137-.141.21-.208q.291-.247-.152.108c.039,0,.892-.44.025-.081a2.466,2.466,0,0,0,1.677-2.952c-.36-1.111-1.711-2.191-2.953-1.676Z"/><path class="d" d="M182.783,206.487c-4.12,7.8-11.91,13.776-20.44,16.493-10.968,3.493-23.071,5.708-35.827,4.589-5.8-.509-13.826-1.928-18.593-5.271-4.812-3.375-7.818-10.034-5.206-15.325,2.57-6.445,25.983-12.382,35.025-14.06,17.877-3.319,39.774-7.214,46.1-2.552,1.305.962,1.563,2.626,1.574,4.247A25.216,25.216,0,0,1,182.783,206.487Z"/><path class="c" d="M180.71,205.276A32.485,32.485,0,0,1,166.138,218.9a55.342,55.342,0,0,1-10.293,3.473,97.422,97.422,0,0,1-11.645,2.356,74.93,74.93,0,0,1-22.945-.243c-6.127-1.081-12.962-2.907-16-8.885a9.794,9.794,0,0,1-1.091-3.962,7.49,7.49,0,0,1,.13-1.9,8.684,8.684,0,0,1,.275-.993c.026-.073.046-.163.074-.238.036-.095.545-1.137.329-.738-.189.352.068-.1.118-.175.1-.154.2-.309.307-.46-.238.333-.126.147.057-.037s.336-.352.513-.519c.142-.133.29-.258.436-.386.075-.067.155-.129.233-.192.28-.229-.291.213.011-.008q.636-.465,1.3-.881c4.349-2.713,9.237-4.312,14.142-5.82,11.579-3.56,23.624-5.642,35.6-7.351,6.2-.884,12.6-1.683,18.869-1.2a16.64,16.64,0,0,1,3.107.458,13.8,13.8,0,0,1,1.4.4c.156.054.721.3.285.1.2.095.405.193.6.3.944.53,1.053,1.385,1.07,2.612a24.946,24.946,0,0,1-.557,5.69,20.408,20.408,0,0,1-1.751,4.978c-1.412,2.742,2.729,5.173,4.145,2.422a27.918,27.918,0,0,0,2.959-12.41,8.785,8.785,0,0,0-1.527-5.855,7.946,7.946,0,0,0-3.366-2.246,23.354,23.354,0,0,0-7.684-1.333,73.747,73.747,0,0,0-9.924.372c-8.047.75-16.029,2.143-23.974,3.592-5.576,1.017-11.1,2.167-16.562,3.683a88.708,88.708,0,0,0-17.19,6.294,19.448,19.448,0,0,0-5.531,3.9,10.913,10.913,0,0,0-2.686,8.109,16.442,16.442,0,0,0,4.336,9.939,21.482,21.482,0,0,0,9.349,5.645c7.6,2.582,16.089,3.158,24.058,2.775a100.289,100.289,0,0,0,25.868-4.873,38.917,38.917,0,0,0,18.8-12.9,33.321,33.321,0,0,0,3.076-4.694C186.315,204.977,182.173,202.55,180.71,205.276Z"/><path class="e" d="M178.555,192.038c2.355-4.452,2.8-10.07-.089-14.121-2.259-3.171-6.152-4.862-10.019-5.314s-7.769.185-11.607.838c-9.843,1.675-19.728,3.489-29.074,7-8.964,3.372-17.483,8.419-23.75,15.639a7,7,0,0,0-2.055,5.409c.3,3.489,3,6.405,6.137,7.955a31.132,31.132,0,0,0,10.033,3.138c8.51,1,14.663,1.334,23.077-.277,7.1-1.361,16.271-3.228,22.646-6.645A41.707,41.707,0,0,0,177.4,193.915,16.664,16.664,0,0,0,178.555,192.038Z"/><path class="c" d="M180.627,193.25c2.978-5.792,3.32-13.194-1.416-18.184s-12.1-5.477-18.515-4.633a202.958,202.958,0,0,0-21.762,4.105,91.516,91.516,0,0,0-19.911,7.146A56.714,56.714,0,0,0,103.7,192.871c-2.308,2.426-4.371,5.072-4.134,8.621a11.63,11.63,0,0,0,4.1,7.838c5.384,4.673,13,5.636,19.817,6.2a72.528,72.528,0,0,0,20.213-1.271c6.928-1.358,14-2.884,20.378-6.019a42.676,42.676,0,0,0,9.229-6.318,33.12,33.12,0,0,0,7.326-8.677c1.481-2.713-2.663-5.138-4.145-2.423-2.786,5.1-7.794,9.275-12.76,12.161-4.785,2.78-10.249,4.231-15.607,5.452a84.758,84.758,0,0,1-17.144,2.573,78.613,78.613,0,0,1-9.063-.42,37.675,37.675,0,0,1-9.372-1.834c-2.471-.893-5.075-2.015-6.759-4.12A5.152,5.152,0,0,1,105,198.7a15.874,15.874,0,0,1,2.371-2.728q1.564-1.615,3.279-3.074a50.974,50.974,0,0,1,6.835-4.872c10.728-6.468,23.1-9.275,35.3-11.456,6.344-1.134,14.136-3.351,20.226-.171a8.942,8.942,0,0,1,4.84,6,12.666,12.666,0,0,1-1.374,8.426C175.072,193.57,179.212,196,180.627,193.25Z"/><path class="f" d="M172.954,177.7a7.966,7.966,0,0,1-7.286,12.648,2.825,2.825,0,0,1,.6,3.571,6.765,6.765,0,0,1-2.942,2.567c-2.621,1.412-6.363,2.12-8.191-.231a18.575,18.575,0,0,1-4.072,4.717,9.25,9.25,0,0,1-14.614-6.065Z"/><path class="c" d="M170.882,178.911a5.6,5.6,0,0,1-5.214,9.037c-1.991-.17-3.281,2.806-1.7,4.1,1.2.975-2,2.491-2.672,2.762-1.462.593-3.35,1.068-4.466-.249-1.069-1.261-2.967-.686-3.769.486-2.012,2.94-4.348,5.66-8.262,5.265a7.03,7.03,0,0,1-6.037-6.04,2.42,2.42,0,0,0-2.953-1.676,2.454,2.454,0,0,0-1.676,2.952,11.682,11.682,0,0,0,17.509,7.921c2.386-1.456,4.013-3.734,5.563-6l-3.769.486c2.691,3.176,7.327,2.446,10.652.834a8.739,8.739,0,0,0,4.509-4.243,5.15,5.15,0,0,0-1.235-5.892l-1.7,4.1a10.347,10.347,0,0,0,9.358-16.26,2.464,2.464,0,0,0-3.283-.861,2.421,2.421,0,0,0-.861,3.284Z"/><path class="d" d="M169.658,157.753c3.2,1.923,5.68,4.634,6.406,8.277.75,3.762-.668,7.719-3.057,10.722a29.368,29.368,0,0,1-9.015,7.032c-17.618,9.753-52.3,15.961-58.471,5.714a12.954,12.954,0,0,1-1.2-8.955c1.6-7.627,7.642-13.589,14.23-17.754A60.118,60.118,0,0,1,159.59,154.3,28.529,28.529,0,0,1,169.658,157.753Z"/><path class="c" d="M168.447,159.825a10.867,10.867,0,0,1,5.034,5.778,10.336,10.336,0,0,1-1.585,8.6c-3.066,4.777-8.8,7.594-13.826,9.859a97.584,97.584,0,0,1-29.683,7.924,67.787,67.787,0,0,1-7.277.387,39.164,39.164,0,0,1-5.991-.434,24.3,24.3,0,0,1-2.5-.557c-.418-.118-.832-.248-1.24-.394q-.294-.105-.584-.221c.525.21-.253-.12-.345-.165a11.061,11.061,0,0,1-1.762-1.061c.5.372-.309-.294-.437-.423s-.23-.248-.346-.372c-.379-.407.265.422-.037-.04-3.252-4.98-.6-11.544,2.692-15.782,3.812-4.911,9.226-8.455,14.753-11.154a57.383,57.383,0,0,1,21.18-5.631c7.295-.493,15.5-.093,21.957,3.69,2.67,1.566,5.088-2.581,2.422-4.145-6.542-3.836-14.6-4.67-22.05-4.457a62.481,62.481,0,0,0-21.879,4.595c-6.572,2.7-12.97,6.393-17.913,11.569-4.849,5.079-8.437,12.059-7.095,19.238,1.933,10.334,14.507,10.912,22.881,10.444a102.521,102.521,0,0,0,33.98-8.124c5.694-2.418,11.812-5.453,15.782-10.337a16.973,16.973,0,0,0,4.087-10.347,13.581,13.581,0,0,0-3.877-9.51,19.379,19.379,0,0,0-3.916-3.071C168.229,154.061,165.815,158.211,168.447,159.825Z"/><path class="c" d="M331.156,218.354c.815-10.268,1.934-20.52,2.953-30.769.205-2.065.409-4.13.627-6.194a2.416,2.416,0,0,0-2.4-2.4,2.455,2.455,0,0,0-2.4,2.4c-1.109,10.478-2.093,20.971-3.081,31.461-.172,1.833-.353,3.666-.5,5.5a2.42,2.42,0,0,0,2.4,2.4,2.448,2.448,0,0,0,2.4-2.4Z"/><path class="c" d="M343.3,182.861c-.414,7.16-.958,14.312-1.372,21.473a2.4,2.4,0,0,0,4.8,0c.414-7.161.958-14.313,1.372-21.473a2.4,2.4,0,0,0-4.8,0Z"/><path class="c" d="M334.877,171.3c-7.658-14.261-12.954-29.479-13.262-45.8-.133-7,.284-14.417,2.922-20.982a19.924,19.924,0,0,1,10.8-11.036c5.928-2.368,12.573-2.414,18.858-2.287a20.138,20.138,0,0,1,8.906,1.872,19.168,19.168,0,0,1,6.52,5.416,24.859,24.859,0,0,1,4.791,16.773c-.388,5.67-1.014,11.787-3.86,16.806a35.759,35.759,0,0,1-7.011,8.323,57.029,57.029,0,0,0-7.337,8.324,60.9,60.9,0,0,0-8.826,19.059c-.515,1.8-.968,3.625-1.387,5.453-.689,3.007,3.938,4.291,4.628,1.276,1.66-7.245,3.957-14.352,7.927-20.687a48.585,48.585,0,0,1,6.709-8.4c2.909-2.934,5.931-5.615,8.277-9.056,3.8-5.579,4.708-11.986,5.423-18.542.745-6.826-.2-13.648-3.768-19.626a23.543,23.543,0,0,0-15.8-11.352,54.674,54.674,0,0,0-11.574-.395,51.041,51.041,0,0,0-10.221,1.3,25.086,25.086,0,0,0-14.862,10.1c-4.26,6.12-5.413,14.038-5.809,21.317-.922,16.962,3.35,33.4,10.74,48.578.982,2.015,2.012,4.006,3.072,5.981,1.462,2.723,5.607.3,4.145-2.422Z"/><path class="g" d="M349.015,173.662c-1.788-.251-15.216-1.668-18.292-1.647-.547,1.849-.035,7.855.2,9.509,2.087,2.028,14.066,3.019,16.187,1.68C348.34,182.43,349.344,175.193,349.015,173.662Z"/><path class="c" d="M349.653,171.348c-3.053-.421-6.127-.7-9.194-1-3.221-.312-6.5-.741-9.736-.732a2.448,2.448,0,0,0-2.314,1.762,15.837,15.837,0,0,0-.314,4.537c.043,1.564.151,3.128.317,4.683a3.991,3.991,0,0,0,.88,2.684,5.069,5.069,0,0,0,1.442.945,17.091,17.091,0,0,0,3.947,1.2,40.205,40.205,0,0,0,9.3.768,11.676,11.676,0,0,0,3.468-.524,4.581,4.581,0,0,0,2.747-3.158,24.7,24.7,0,0,0,1.056-5.132,13.86,13.86,0,0,0,.077-4.354,2.422,2.422,0,0,0-2.952-1.676A2.451,2.451,0,0,0,346.7,174.3c.062.331-.028-.694-.035-.21,0,.147.012.295.012.441,0,.432-.025.864-.059,1.294-.036.451-.087.9-.141,1.35.058-.485-.017.108-.044.284q-.063.414-.138.826a19.841,19.841,0,0,1-.65,2.719c-.024.074-.243.685-.092.294s-.064.1-.1.191c-.208.473.209-.2.082-.078.177-.167.534-.365.149-.165.676-.352.122-.074-.241,0-.15.032-.306.044-.453.08-.251.062.3-.038.283-.038-.126.007-.254.028-.38.04a24.277,24.277,0,0,1-2.587.082c-1.031-.015-2.062-.074-3.089-.167-.492-.044-.983-.1-1.474-.158-.1-.011-.474-.065.014,0-.1-.015-.2-.028-.308-.044-.269-.042-.538-.083-.807-.129a22.965,22.965,0,0,1-2.954-.675c-.2-.061-.39-.13-.585-.2-.592-.2.207.132-.064-.021-.153-.086-.315-.167-.471-.251-.047-.024-.088-.064-.135-.086-.348-.163.444.372.189.137l.617,1.059c.13.934,0-.058-.026-.289-.039-.365-.073-.731-.1-1.1-.076-.885-.137-1.771-.177-2.658s-.066-1.795-.042-2.692c.009-.351.037-.7.056-1.051.03-.544-.064.122-.006,0a2.934,2.934,0,0,0,.1-.447l-2.315,1.761c3.17-.008,6.371.408,9.522.711q2.69.26,5.377.547c.695.075,1.39.15,2.085.23.249.028.5.057.748.088s1.006.135-.078-.015a2.482,2.482,0,0,0,2.952-1.676A2.417,2.417,0,0,0,349.653,171.348Z"/><path class="c" d="M234.708,340.876c4.479,9.733,11.449,19.457,21.8,23.414,9.3,3.554,21.557,3.227,28.739-4.467,3.818-4.09,7.59-9.541,8.493-15.171a2.474,2.474,0,0,0-1.676-2.952,2.419,2.419,0,0,0-2.952,1.676c-.712,4.434-3.43,8.6-6.294,11.967a26.547,26.547,0,0,1-1.865,2c-.261.25-.528.492-.807.722.568-.469-.336.231-.276.19q-.5.342-1.015.654a19.331,19.331,0,0,1-7.223,2.544,27.811,27.811,0,0,1-12.877-1.442,19.319,19.319,0,0,1-4.344-2.043,29.36,29.36,0,0,1-5.3-4.178,51.09,51.09,0,0,1-10.259-15.339,2.418,2.418,0,0,0-3.283-.861,2.456,2.456,0,0,0-.861,3.284Z"/><path class="c" d="M255.605,297.534a46.331,46.331,0,0,0-5.649,11.8,2.42,2.42,0,0,0,1.676,2.952,2.451,2.451,0,0,0,2.952-1.676q.458-1.442,1.008-2.85c.1-.251.2-.5.3-.748-.219.535.115-.261.155-.353q.306-.692.636-1.372a44.212,44.212,0,0,1,3.064-5.325,2.415,2.415,0,0,0-.861-3.284,2.457,2.457,0,0,0-3.283.861Z"/><path class="c" d="M273.829,294.337c-3.411-10.228-6.673-20.489-9.885-30.78-2.882-9.238-5.733-18.847-10.555-27.294a57.218,57.218,0,0,0-17.851-19.206,59.477,59.477,0,0,0-11.545-5.54,105.866,105.866,0,0,0-13.929-4.116c-5.662-1.327-11.307-2.648-16.994-3.865-3.012-.645-4.3,3.981-1.276,4.628,4.39.94,8.749,1.947,13.118,2.967,8.715,2.033,17.55,4.111,25.474,8.432a49.7,49.7,0,0,1,17.491,16.854c4.935,7.753,7.715,16.721,10.492,25.415,3.6,11.268,7.089,22.558,10.831,33.781.972,2.916,5.61,1.666,4.629-1.276Z"/><path class="c" d="M71.081,334.916c-1.775,6.889-6.605,12.657-11.922,17.19a44.816,44.816,0,0,1-8.343,5.649,19.855,19.855,0,0,1-7,2.383A21.586,21.586,0,0,1,24.4,351.249c-4.777-6.572-6.307-14.977-6.51-22.943-.217-8.467,1.164-16.2,3.213-24.539,1.941-7.89,4.431-15.687,7.105-23.358,2.337-6.707,4.893-13.341,7.515-19.941,1.1-2.759,2.352-5.873,3.42-8.4.795-1.88,1.878-4.28,2.9-6.3a99.646,99.646,0,0,1,5.7-9.9,39.667,39.667,0,0,1,7.17-8.576,49.962,49.962,0,0,1,9.562-5.993,125.316,125.316,0,0,1,12.662-5.588q3.415-1.305,6.885-2.46c2.914-.976,1.664-5.613-1.276-4.629-9.173,3.071-18.493,6.7-26.668,11.939a35.576,35.576,0,0,0-8.561,7.522,77.6,77.6,0,0,0-7.151,10.656,137.36,137.36,0,0,0-7.618,16.317c-2.817,6.932-5.524,13.914-8.065,20.952-2.793,7.734-5.342,15.6-7.461,23.547-2.254,8.452-4.042,17.183-4.153,25.956-.111,8.727,1.157,17.958,5.559,25.634a27.169,27.169,0,0,0,20.341,13.739c7.1.8,13.508-2.022,19.218-6.017,6.329-4.428,12.173-10.277,15.53-17.316a29.749,29.749,0,0,0,1.99-5.369c.772-2.993-3.857-4.27-4.628-1.276Z"/><path class="c" d="M37.468,285.6a13.1,13.1,0,0,0-3.087,2.553A15.48,15.48,0,0,0,32,291.581a2.55,2.55,0,0,0-.242,1.849,2.4,2.4,0,0,0,2.952,1.677,2.384,2.384,0,0,0,1.434-1.1,13.17,13.17,0,0,1,1.349-2.155l-.375.486a12.858,12.858,0,0,1,2.256-2.288l-.486.375a9.609,9.609,0,0,1,1-.675,2.483,2.483,0,0,0,1.1-1.435,2.452,2.452,0,0,0-.241-1.849,2.422,2.422,0,0,0-1.435-1.1,2.5,2.5,0,0,0-1.849.242Z"/><path class="c" d="M42.174,211.985a26.006,26.006,0,0,0-7.386,5.415,23.568,23.568,0,0,0-5.331,8.1,2.41,2.41,0,0,0,1.676,2.952,2.465,2.465,0,0,0,2.952-1.676,2.117,2.117,0,0,1,.2-.5c-.155.106-.157.361.013-.005.142-.307.3-.609.456-.906a19.522,19.522,0,0,1,1.1-1.784c.184-.268.381-.527.571-.792-.323.45.064-.079.11-.136.1-.128.209-.256.315-.382q.707-.84,1.48-1.619.736-.741,1.526-1.425c.273-.236.549-.466.831-.69.183-.147.315-.237.05-.042.154-.114.307-.229.463-.342A21.2,21.2,0,0,1,44.6,216.13a2.412,2.412,0,0,0,.861-3.284,2.468,2.468,0,0,0-3.284-.861Z"/><path class="c" d="M295.525,364.873a25.119,25.119,0,0,1-15.348,12.433,2.4,2.4,0,1,0,1.276,4.628A30.939,30.939,0,0,0,299.67,367.3a2.457,2.457,0,0,0-.861-3.284,2.425,2.425,0,0,0-3.284.861Z"/><path class="a" d="M38.657,310.285a29.639,29.639,0,0,1,1.444-7.263c1.068-4.618,23.278-27.925,24.68-29.492,6.878-7.689,14.38-17.023,18.907-22.342a17.716,17.716,0,0,0,2.83-8.527s-.021-.432-.06-1.193c-4.6-20.152.952-45.194,16.461-57.867a10.518,10.518,0,0,1,5.273-2.71c5.092-.555,9.435,4.545,7.308,9.205a12.467,12.467,0,0,1,3.868-2.75,5.822,5.822,0,0,1,8.028,3.663,7.485,7.485,0,0,1-.577,5.421c2.345-3.194,7.419-3.822,10.014-.827.969,1.119,2.012,3.747,1.638,5.235a9.566,9.566,0,0,1-2.141,4.684c2.074-1.472,3.662-.836,5.388-.078,4.665,2.049,3.9,8.96,1.59,13.5-8.116,15.956-17.031,34.24-31.242,42.354a8.507,8.507,0,0,0-.818.894C99.422,276.168,84.67,327.2,72.231,334.405a15.892,15.892,0,0,1-20.7,2.559c-6-4.325-10.115-11.761-11.746-18.973C39.175,315.286,38.516,313.27,38.657,310.285Z"/><path class="c" d="M117.106,213.727c4.261-5.115,7.889-10.7,11.785-16.086a2.418,2.418,0,0,0-.861-3.284,2.454,2.454,0,0,0-3.283.861c-1.719,2.377-3.369,4.8-5.067,7.2-.994,1.4-2,2.793-3.025,4.169s-1.756,2.325-2.944,3.75a2.467,2.467,0,0,0,0,3.394,2.421,2.421,0,0,0,3.395,0Z"/><path class="c" d="M106.391,204.435c3.344-3.524,6.412-7.326,9.507-11.068.433-.525.864-1.051,1.3-1.574a2.454,2.454,0,0,0,0-3.394,2.428,2.428,0,0,0-3.394,0c-2.727,3.281-5.433,6.578-8.238,9.792-.841.964-1.688,1.923-2.568,2.85a2.4,2.4,0,0,0,3.394,3.394Z"/><path class="c" d="M127.991,219.786c3.438-4.376,7.033-8.629,10.411-13.052a2.406,2.406,0,0,0-.861-3.284,2.473,2.473,0,0,0-3.283.861,1.668,1.668,0,0,0-.216.281c.213-.477.235-.3.063-.082s-.344.441-.517.66q-.561.713-1.127,1.421-1.326,1.662-2.664,3.314c-1.74,2.157-3.488,4.308-5.2,6.487a2.464,2.464,0,0,0,0,3.394c.864.793,2.566,1.054,3.394,0Z"/><path class="c" d="M90.793,247.646a61.958,61.958,0,0,1-2.393-32.59c1.988-10.519,6.512-20.912,14.494-28.263,2.042-1.88,4.647-4.344,7.641-3.271,2.1.752,3.82,3.177,2.893,5.363a2.444,2.444,0,0,0,.618,3.1,2.41,2.41,0,0,0,3.151-.188c1.628-1.591,3.866-3.271,6.162-2.232,2.034.92,2.342,3.762,1.388,5.657a2.42,2.42,0,0,0,.618,3.1,2.373,2.373,0,0,0,3.151-.187c1.421-1.833,4.187-2.93,6.16-1.305,2.119,1.744,1.634,5-.043,7a2.428,2.428,0,0,0-.188,3.151,2.39,2.39,0,0,0,3.1.619,2.574,2.574,0,0,1,2.966-.078,2.954,2.954,0,0,1,1.833,1.775,6.9,6.9,0,0,1,.4,2.727,12.757,12.757,0,0,1-.59,3.4,46.517,46.517,0,0,1-3.57,7.548c-1.453,2.842-2.925,5.674-4.459,8.473-5.633,10.282-12.326,21.262-22.651,27.432-1.814,1.084-2.768,2.567-4.007,4.339-1,1.428-1.9,2.917-2.766,4.429-2.112,3.7-3.967,7.551-5.754,11.419-4.171,9.026-7.936,18.233-12.019,27.3C83.507,313.931,80.037,321.832,75,328.5c-.24.317.348-.431-.05.063-.121.15-.241.3-.364.45q-.352.429-.724.844a19.086,19.086,0,0,1-1.437,1.45c-.231.207-.469.406-.712.6.587-.467-.188.111-.339.214-1.028.7-1.765,1.7-2.755,2.458a13.788,13.788,0,0,1-13.858,1.518c-5.226-2.5-9-8.3-11.05-13.527a52.822,52.822,0,0,1-2.192-7.7c-.107-.473-.2-.948-.292-1.425,0-.014-.122-.8-.061-.331-.032-.25-.056-.5-.076-.752a16.658,16.658,0,0,1,.082-3.422,29.785,29.785,0,0,1,.97-4.344c.11-.384.249-.768.34-1.158.147-.622-.294.474.072-.157a35.016,35.016,0,0,1,2.018-3.129c.236-.323.477-.643.718-.963.032-.043.456-.594.143-.19.112-.145.226-.29.339-.434q.909-1.158,1.846-2.292c1.327-1.612,2.684-3.2,4.056-4.776,4.617-5.3,9.4-10.453,14.194-15.6,3.613-3.882,7-7.992,10.4-12.061q3.095-3.707,6.172-7.428c1.769-2.125,3.672-4.094,4.773-6.665a17.785,17.785,0,0,0,1.712-7.076c-.069-3.084-4.869-3.095-4.8,0a7.808,7.808,0,0,1-.412,2.56,15.13,15.13,0,0,1-1.548,3.932,22.352,22.352,0,0,1-2.216,2.771q-1.545,1.851-3.083,3.709c-4.529,5.461-9.023,10.976-13.8,16.226-4.376,4.811-8.861,9.518-13.167,14.394-2.877,3.258-5.715,6.557-8.366,10a41.128,41.128,0,0,0-2.617,3.7,16.485,16.485,0,0,0-1.753,4.666,23.684,23.684,0,0,0-.824,8.24,48.252,48.252,0,0,0,1.316,6.515A35.763,35.763,0,0,0,47.464,336.7a18.61,18.61,0,0,0,16.862,4.947,18.05,18.05,0,0,0,7.942-3.892c.518-.435.956-.934,1.44-1.4-.232.224.3-.238.439-.332a17.346,17.346,0,0,0,1.908-1.546,38.372,38.372,0,0,0,6.343-8.45c2.321-3.881,4.336-7.943,6.264-12.031,4.381-9.289,8.266-18.8,12.452-28.177,1.917-4.294,3.884-8.573,6.072-12.737.922-1.756,1.885-3.493,2.929-5.18.441-.714.9-1.418,1.374-2.108q.331-.481.679-.951.166-.226.337-.448c-.382.5.11-.129.183-.22a5.116,5.116,0,0,1,1.014-1.132c-.513.345.493-.216.488-.213q.454-.278.9-.567a45.6,45.6,0,0,0,3.938-2.906,52.148,52.148,0,0,0,6.537-6.443A102.507,102.507,0,0,0,136.7,236.658c1.649-2.9,3.216-5.84,4.749-8.8,1.46-2.819,3.026-5.627,4.322-8.526,2.144-4.795,3.137-11.943-1.842-15.392a7.8,7.8,0,0,0-8.81-.49l2.908,3.769a11.469,11.469,0,0,0,2.918-7.261,9.677,9.677,0,0,0-2.991-6.622c-3.716-3.277-9.835-2.471-12.832,1.4l3.769,2.908c2.091-4.152,1.339-9.943-3.125-12.22-4.35-2.218-8.733-.178-11.963,2.978l3.77,2.908a8.847,8.847,0,0,0-1.425-9.586,9.638,9.638,0,0,0-9.184-3.047c-3.371.706-6.278,3.492-8.642,5.855a47.026,47.026,0,0,0-5.789,7.114c-7.1,10.622-10.219,23.872-10.032,36.551a63.01,63.01,0,0,0,3.663,20.728,2.465,2.465,0,0,0,2.953,1.676,2.42,2.42,0,0,0,1.676-2.952Z"/><path class="c" d="M132.373,153.521c-.674-3.477,1.12-6.117,4.372-7.288,3.9-1.406,8.07-.377,12,.349a62.451,62.451,0,0,0,14.427.773,66.526,66.526,0,0,1,6.785-.2,5.967,5.967,0,0,1,4.261,1.647,5.212,5.212,0,0,1-.387,7.116c-2.307,2.063,1.1,5.449,3.395,3.394,3.1-2.776,3.715-7.469,2.122-11.193-2.04-4.769-6.934-5.923-11.7-5.771-5.756.184-11.455.72-17.166-.31-5.039-.909-10.362-2.206-15.342-.314a12.613,12.613,0,0,0-6,4.416,11.062,11.062,0,0,0-1.405,8.657,2.424,2.424,0,0,0,2.952,1.676,2.45,2.45,0,0,0,1.677-2.952Z"/><path class="c" d="M64.078,350.757c-.036,10.6-.129,21.206-.13,31.81,0,3.088,4.8,3.094,4.8,0,0-10.6.094-21.207.13-31.81.01-3.089-4.79-3.093-4.8,0Z"/><path class="c" d="M237.615,288.3c-.955,7.283-1.679,14.593-2.269,21.915-.56,6.947-1.26,13.946-1.24,20.917.037,12.118.232,24.236.4,36.353.068,5.027.143,10.055.145,15.082,0,3.089,4.8,3.094,4.8,0,0-10.231-.227-20.463-.357-30.693q-.119-9.264-.175-18.528c-.032-6.925.508-13.806,1.04-20.708.626-8.132,1.4-16.251,2.46-24.338a2.411,2.411,0,0,0-2.4-2.4,2.461,2.461,0,0,0-2.4,2.4Z"/></svg>