<?xml version="1.0" encoding="utf-8"?>
<!-- Uploaded to: SVG Repo, www.svgrepo.com, Generator: SVG Repo Mixer Tools -->
<svg width="800px" height="800px" viewBox="-6.25 0 383.689 383.689" xmlns="http://www.w3.org/2000/svg"><defs><style>.a{fill:#ffffff;}.b{fill:#211715;}.c{fill:#f4b467;}.d{fill:#957f6e;}.e{fill:#89705d;}.f{fill:#8acc89;}.g{fill:#cfcfcf;}</style></defs><path class="a" d="M214.412,102.348a9.3,9.3,0,0,1,7.44-2.177,8.779,8.779,0,0,1,6.312,4.2,12.4,12.4,0,0,1,1.3,4.993,37.193,37.193,0,0,1-3.792,19.717,23.649,23.649,0,0,1-6.114,8.023,15.663,15.663,0,0,1-7.288,3.285l-1.248.193c-.6,2.239-1.271,4.125-1.6,5.126-2.4,6.519-17.292,31.186-34.991,35.119l-37.2,1.721c-11.717-1.147-22.2-7.708-31.022-18.262A63.243,63.243,0,0,1,94.154,140.75l-2.376-.363a15.679,15.679,0,0,1-7.289-3.286,23.634,23.634,0,0,1-6.113-8.023,37.193,37.193,0,0,1-3.793-19.717,12.4,12.4,0,0,1,1.3-4.993,8.777,8.777,0,0,1,6.312-4.2,9.3,9.3,0,0,1,7.439,2.177S68.571,43.153,146.2,43.153,214.412,102.348,214.412,102.348Z"/><path class="a" d="M47.51,244.5c2.909-5.889,8.269-15.277,13.708-19.875,6.293-5.321,18.612-10.807,30.168-14.659,0,0,12.3-2.666,47.259-5.037s54.37,1.778,54.37,1.778c5.334,1.481,13.926,2.963,20.87,5.584,6.769,2.556,10.952,4.388,15.75,8.3a56.231,56.231,0,0,1,17.583,24.073c3.065,7.691,5.936,16.886,8.32,24.779,2.482,8.215,5.26,16.406,7.976,24.554l19.919,49.036c-.9,6.12-7.235,14.093-10.01,16.082-9.667,6.927-22.212,3.2-26.848.734-8.253-4.384-15.48-13.881-20.285-27.333a299.971,299.971,0,0,0,2.932,48.773l-156.688,0c2.34-16.57,2.92-27.71,2.58-37.29-3.32,8.49-13.79,16.35-22.54,17.48-9.01,1.16-17.4-3.01-22.58-10.46-6.422-9.261-7.291-22.86-6.044-34.212.025-.155.157-1.027.157-1.027,1.945-12.812,4.612-21.186,8.612-33.511,3.155-9.72,11.1-29.848,13.821-35.736C46.822,245.918,47.147,245.237,47.51,244.5Z"/><path class="b" d="M279.042,141.357a4.7,4.7,0,0,0,.6.349c-.269-.072-.22-.2-.086-.045.058.067.274.216.286.305,0-.01-.264-.4-.062-.067.049.08.1.158.147.24l.067.124q.141.3-.028-.092a1.127,1.127,0,0,1,.133.4c.025.091.041.184.065.275.116.441,0-.328-.007-.043,0,.063.049.615-.011.631-.016,0,.116-.485,0-.073-.03.106-.05.215-.082.321-.026.085-.058.167-.084.252-.125.4.187-.325-.011.01-.114.193-.225.385-.345.575-.237.375.22-.232.022-.029-.08.081-.151.172-.23.253-.064.066-.131.131-.2.193-.024.022-.351.339-.117.114s-.1.068-.138.093c-.119.079-.24.154-.365.224-.083.046-.172.086-.254.134-.416.24.4-.12-.058.03-.19.062-.376.129-.569.179-.261.067-.527.119-.792.168-.111.021-.223.038-.334.058q-.349.052.029,0c-.083.01-.167.019-.251.026-.249.023-.5.037-.75.038-.137,0-.274,0-.411-.011-.154-.008-.447.063-.036.013a2.088,2.088,0,0,1-.707-.163c-.115-.036-.428-.191-.052,0-.148-.075-.293-.148-.435-.235,0,0-.442-.314-.184-.116s-.12-.112-.137-.128c-.069-.064-.136-.131-.2-.2-.023-.024-.327-.368-.11-.111s-.05-.085-.074-.122c-.046-.073-.089-.148-.13-.224-.022-.04-.215-.421-.062-.1.145.3-.025-.1-.046-.17-.028-.1-.047-.2-.074-.3-.089-.32.029.124.015.174a3.443,3.443,0,0,0-.019-.6,1.225,1.225,0,0,0,.017-.237l-.04.3c.013-.078.028-.155.046-.232a2.759,2.759,0,0,0,.171-.562c.017.287-.179.35-.035.1.049-.084.091-.172.142-.256.04-.067.086-.131.126-.2.2-.336-.259.231-.063.079.159-.124.287-.313.436-.453.091-.085.19-.162.28-.248q.169-.138-.113.082c.079-.06.16-.117.241-.173a7.109,7.109,0,0,1,.632-.381c.109-.058.222-.106.33-.163q.2-.093-.14.055c.091-.036.183-.071.276-.1a6.725,6.725,0,0,1,.707-.207c.12-.029.24-.053.362-.075.073-.014.146-.026.219-.037q-.393.051-.163.027c.274-.01.546-.037.821-.032.126,0,.251.009.377.018.069.005.562.089.262.022-.33-.073.162.038.186.043.151.032.3.068.451.109.1.028.2.057.3.089s.731.28.261.079a2.193,2.193,0,0,0,1.541.2,2,2,0,0,0,.478-3.655,9.37,9.37,0,0,0-8.543.319,6.554,6.554,0,0,0-3.459,6.736c.508,3.12,3.557,5.054,6.558,5.045,2.929-.009,5.875-1.051,7.535-3.574,1.826-2.776,1.069-7.048-2.091-8.526a2.048,2.048,0,0,0-2.737.717A2.025,2.025,0,0,0,279.042,141.357Z"/><path class="b" d="M268.794,104.956c-.439-.042-.073-.009.045.019.135.032.265.085.4.118-.33-.081-.129-.068-.018,0s.244.132.363.207c.092.059.369.293.07.034.085.074.169.148.25.226.1.1.189.21.289.309s.075.085-.051-.072c.049.068.1.139.14.211.076.119.139.245.21.366.054.09.111.335,0-.015.082.268.155.523.213.8-.016-.075-.026-.426-.013-.053,0,.135.014.268.014.4s-.013.268-.018.4c-.015.421.1-.331-.02.111-.067.238-.115.477-.2.711-.036.106-.193.436-.014.062-.048.1-.1.2-.148.3a7.344,7.344,0,0,1-.447.722c.045-.065.245-.283-.006,0-.115.132-.231.262-.355.386-.083.084-.169.165-.256.244-.036.032-.5.379-.155.138-.209.148-.424.284-.643.416-.31.187-.624.368-.945.534-.128.067-.258.128-.386.194-.354.181.032.011-.31.137a8.169,8.169,0,0,1-1.006.308c-.132.03-.272.062-.408.079.331-.042-.109-.007-.188,0a5,5,0,0,1-.519-.012c.292.024-.043-.006-.094-.019-.155-.037-.309-.074-.462-.122-.06-.018-.551-.212-.314-.1.276.126-.192-.105-.2-.109-.091-.049-.182-.1-.269-.158-.017-.01-.418-.3-.169-.106s-.119-.114-.135-.129c-.07-.066-.138-.135-.2-.2-.023-.026-.3-.388-.116-.124s-.069-.116-.085-.141c-.073-.118-.133-.242-.2-.361-.135-.23-.062.031.034.1-.056-.042-.09-.25-.112-.321a4.877,4.877,0,0,1-.141-.591c.036-.01.023.495.016.064,0-.112-.011-.223-.011-.335,0-.09,0-.179.009-.268.029-.48.017,0-.009,0s.151-.61.163-.648c.028-.084.062-.167.092-.251-.148.415-.06.139-.009.046.135-.246.257-.5.406-.735.059-.094.121-.188.184-.279.087-.127.311-.388.086-.126a9.472,9.472,0,0,1,.677-.726c.08-.075.162-.149.245-.222.053-.046.478-.349.111-.1a9.63,9.63,0,0,1,1.583-.909c-.368.159-.089.039-.011.015.161-.05.319-.111.481-.159.329-.1.66-.165,1-.232.094-.019.38-.027-.019,0,.174-.012.346-.033.521-.041a9.4,9.4,0,0,1,1.062.013,2.01,2.01,0,0,0,2-2,2.046,2.046,0,0,0-2-2,10.349,10.349,0,0,0-8.259,3.281c-2.046,2.289-2.97,5.3-1.664,8.191,1.417,3.142,5.218,4.422,8.4,3.5,3.222-.938,6.417-3.274,7.22-6.684a6.879,6.879,0,0,0-.8-5.326,6.475,6.475,0,0,0-4.9-2.957,2.007,2.007,0,0,0-2,2A2.054,2.054,0,0,0,268.794,104.956Z"/><path class="b" d="M252.4,131.751c.109.025.219.066.328.088.261.052-.41-.243-.04-.021.123.074.394.157.461.286l-.191-.143c.069.06.135.122.2.187a1.635,1.635,0,0,0,.186.2c-.134-.023-.2-.309-.062-.077.072.118.149.231.215.353.052.1.1.4.071.136-.028-.3.016.085.034.15a1.346,1.346,0,0,0,.062.267c-.123-.164-.025-.379-.018-.13.006.221.006.433,0,.654-.017.383-.005-.138.019-.141-.013,0-.073.331-.088.385-.029.106-.071.209-.1.315-.074.271.232-.436.023-.046-.085.159-.164.32-.26.473-.06.1-.128.188-.191.283-.155.236.332-.344.011-.027-.166.165-.33.331-.5.5-.329.319.256-.158.011,0-.1.064-.2.138-.3.2-.168.1-.342.2-.519.282-.125.06-.253.113-.378.17-.31.14.436-.152-.094.034-.277.1-.55.2-.832.282a7.162,7.162,0,0,1-.842.19c.427-.068-.155,0-.313,0,0,0-.556-.022-.238,0s-.218-.049-.234-.053c-.111-.029-.219-.065-.329-.1-.515-.161.312.191-.072-.035a4.427,4.427,0,0,1-.567-.345c.013-.024.373.337.109.076-.058-.058-.121-.11-.179-.168s-.129-.16-.2-.222c-.193-.163.26.416.065.078a2.915,2.915,0,0,0-.28-.5c.205.215.135.369.075.165-.031-.107-.069-.211-.1-.319-.018-.072-.03-.145-.048-.217-.077-.313.031.172.025.205a4.218,4.218,0,0,0-.015-.548,1.622,1.622,0,0,0,.016-.218c.046.419-.058.355,0,.1.035-.158.107-.313.136-.47.047-.249-.236.463-.055.126.034-.064.065-.13.1-.193a1.97,1.97,0,0,1,.372-.579c-.03.018-.295.349-.049.065.094-.109.187-.216.285-.32.165-.172.343-.326.518-.485.343-.311-.259.165-.012.01.139-.089.272-.187.413-.273.2-.123.413-.229.626-.334.341-.167-.063.012-.085.034a1.221,1.221,0,0,1,.4-.143,6.784,6.784,0,0,1,.767-.195c.169-.033.383-.168-.03-.007a1.561,1.561,0,0,1,.437-.038,7.044,7.044,0,0,1,.741,0c.125.007.249.022.374.03q.228.024-.156-.022c.1.016.2.034.3.054a2,2,0,0,0,1.063-3.857,8.983,8.983,0,0,0-7.883,2.1,6.286,6.286,0,0,0-2,6.558,5.945,5.945,0,0,0,2.467,3.105,6.483,6.483,0,0,0,4.619.794,8.343,8.343,0,0,0,6.645-5.064,5.732,5.732,0,0,0-3.845-7.493,2,2,0,1,0-1.063,3.857Z"/><path class="b" d="M10.236,155.848c-.534-.208.227.09.285.2-.009-.017-.345-.317-.067-.041.069.069.14.133.207.2.035.037.267.392.121.134-.156-.278.075.139.087.161s.136.257.138.257c-.092-.234-.111-.281-.058-.143.026.068.05.137.071.207.037.115.054.237.091.351.086.268,0-.487,0-.029a3.254,3.254,0,0,0-.012.558c-.1-.065.11-.482,0-.093-.029.1-.049.211-.079.315-.024.084-.056.167-.08.251-.126.428.2-.385-.005.018-.094.185-.189.366-.3.542-.045.072-.123.252-.2.29.023-.012.3-.356.05-.07-.144.162-.288.321-.446.469-.074.069-.18.206-.273.241l.173-.132c-.079.058-.16.114-.242.168-.189.124-.393.216-.584.333-.251.154.449-.14-.01.009-.1.032-.194.068-.292.1a14.41,14.41,0,0,1-1.679.4c-.1.019-.376.016.018,0-.114,0-.228.021-.342.028-.284.016-.56,0-.844-.005-.121,0-.339-.089.035.008-.107-.028-.218-.042-.326-.069-.135-.035-.265-.087-.4-.123s-.106-.037.088.039c-.078-.036-.155-.076-.229-.119-.119-.067-.232-.144-.349-.214-.322-.194-.018.012.035.04a2.735,2.735,0,0,1-.517-.492c-.226-.223.092.087.062.092a1.682,1.682,0,0,1-.143-.216,2.455,2.455,0,0,0-.152-.276c-.1-.117.12.436.015.025a3.233,3.233,0,0,0-.126-.52c.153.325.031.384.035.181,0-.1,0-.2,0-.293a1.817,1.817,0,0,0,.021-.292c.007.052-.1.494-.013.185a2.194,2.194,0,0,0,.17-.566c.031.262-.183.355-.031.095.051-.087.095-.178.147-.264.042-.07.09-.136.132-.2.216-.36-.253.279-.042.049.282-.306.642-.855,1.033-1.025-.363.158-.1.077.02-.011s.251-.173.381-.253c.237-.148.484-.27.731-.4s.007-.084-.062.018a1.74,1.74,0,0,1,.426-.156,7.069,7.069,0,0,1,.729-.2,2.742,2.742,0,0,1,.447-.081c-.337.014-.163.023.073.01a6.507,6.507,0,0,1,.765,0,1.355,1.355,0,0,1,.308.026c-.452-.17-.055,0,.085.026a7.162,7.162,0,0,1,.921.262,2.011,2.011,0,0,0,2.46-1.4,2.049,2.049,0,0,0-1.4-2.46,8.836,8.836,0,0,0-8.009,1.236,8.252,8.252,0,0,0-2.68,2.964,5.733,5.733,0,0,0-.431,3.958c.811,3.009,4.013,4.682,6.975,4.391,2.9-.285,5.779-1.469,7.174-4.2a6.106,6.106,0,0,0,.55-4.576,5.872,5.872,0,0,0-3.579-3.773,2.008,2.008,0,0,0-2.46,1.4A2.058,2.058,0,0,0,10.236,155.848Z"/><path class="b" d="M47.631,146.534c.265.3-.191-.321-.065-.086.045.083.1.168.145.249.095.158-.009.212-.064-.161a2.073,2.073,0,0,0,.07.22,2.193,2.193,0,0,0,.073.341c-.021-.043-.034-.509-.037-.184,0,.078,0,.156,0,.234s-.007.156-.015.234l.039-.3a3.331,3.331,0,0,0-.153.563c-.008-.041.224-.444.06-.159-.038.066-.072.133-.112.2s-.26.333-.034.072-.018.013-.057.055-.1.108-.156.159-.109.1-.166.15l.229-.173c-.161.069-.319.219-.477.305-.064.035-.144.063-.2.1.339-.229.323-.121.159-.067-.186.061-.368.123-.561.166-.075.017-.16.024-.232.046.524-.159.238-.029.054-.018-.207.012-.408,0-.613-.006-.162,0-.272-.1.158.027-.076-.023-.17-.031-.25-.047a10.8,10.8,0,0,1-1.2-.308q-.147-.048-.291-.1c-.289-.108-.06-.145.083.04-.075-.1-.317-.154-.43-.218-.086-.049-.171-.1-.253-.156-.27-.179.009-.12.07.066a1.951,1.951,0,0,0-.424-.416c.293.208.187.262.058.065-.063-.1-.121-.194-.175-.295a2.589,2.589,0,0,0-.119-.242c.222.315.1.275.062.114-.023-.1-.058-.2-.081-.3-.069-.314.1-.114.007.116a2.138,2.138,0,0,0,0-.577c.012.484-.064.357-.019.2.03-.106.06-.215.087-.321.036-.143.167-.266-.083.171.036-.062.063-.132.1-.2.043-.08.089-.157.139-.233.138-.213.189-.083-.089.1a3.281,3.281,0,0,0,.378-.385c.226-.216-.116.109-.15.115.067-.013.165-.109.227-.145a1.31,1.31,0,0,0,.238-.125c-.2.19-.371.14-.159.067a8.745,8.745,0,0,1,1.137-.294c-.632.127-.03.018.164.015a5.3,5.3,0,0,0,.7.033c-.03,0-.516-.088-.186-.022.115.022.229.043.343.07a5.75,5.75,0,0,1,.562.166c.053.018.417.167.091.027s.075.041.139.074a5.593,5.593,0,0,1,.57.331c.067.044.132.092.2.137.338.225-.3-.269-.02-.011.184.171.367.335.538.519a2.018,2.018,0,0,0,2.829,0,2.044,2.044,0,0,0,0-2.829,7.751,7.751,0,0,0-6.226-2.467,6.62,6.62,0,0,0-3.248,1.063,5.229,5.229,0,0,0-2.13,3.077,5.4,5.4,0,0,0,.691,4.015,6.2,6.2,0,0,0,3.037,2.4c2.127.87,4.769,1.06,6.734-.323a5.391,5.391,0,0,0,2.318-3.322,5.116,5.116,0,0,0-1.176-4.439,2.013,2.013,0,0,0-2.829,0A2.05,2.05,0,0,0,47.631,146.534Z"/><path class="b" d="M18.766,125.38c-.337-.4.2.219.189.348,0-.022-.148-.448-.029-.06.03.1.062.193.087.291l.035.148c.041.225.04.2,0-.081a1.151,1.151,0,0,1,.019.306c0,.1-.007.205,0,.306.021.441.1-.319,0,.077a3.049,3.049,0,0,1-.214.734c.211-.384-.055.055-.145.2-.018.027-.315.385-.107.161s-.124.123-.137.136c-.069.071-.141.141-.215.208-.159.145-.337.238-.064.065-.216.137-.433.261-.652.391-.084.05-.348.142.056-.011-.1.037-.193.074-.291.108-.252.084-.5.137-.762.2-.122.029-.317.13.056,0a1.744,1.744,0,0,1-.486.03,6,6,0,0,1-.826-.041c.434.053-.136-.045-.291-.081a13.884,13.884,0,0,1-1.522-.433c-.012,0-.5-.182-.2-.069s-.171-.081-.187-.088c-.183-.09-.364-.187-.539-.293-.108-.065-.209-.143-.317-.207-.251-.15.327.32-.013-.012-.182-.178-.361-.351-.529-.543.287.327.062.069,0-.035-.079-.126-.144-.26-.221-.387-.044-.073-.139-.352-.014,0-.038-.106-.077-.211-.109-.319-.039-.129-.058-.268-.1-.395-.091-.282,0,.466,0-.014,0-.1-.011-.2-.01-.306,0-.076,0-.151.008-.226q.018-.233-.032.161a3.122,3.122,0,0,0,.178-.706c.079-.283.067.055-.038.078.013,0,.11-.218.131-.254.058-.1.131-.2.187-.3.134-.246-.324.336-.011.01.075-.077.5-.4.5-.5-.01.126-.306.2-.066.059.1-.06.2-.127.3-.185a1.212,1.212,0,0,1,.315-.159c-.371.061-.189.074-.056.033.249-.075.49-.161.743-.222.1-.024.2-.046.3-.066.076-.014.151-.028.227-.039.152-.024.1-.018-.152.02,0-.007.709-.04.762-.04.128,0,.255,0,.382.01s.7.007.151,0a5.569,5.569,0,0,1,1.484.38c.472.15-.253-.133.023,0,.139.069.282.133.419.2a7.627,7.627,0,0,1,.741.447c.087.06.173.122.259.184-.371-.271.014.022.093.091a8.7,8.7,0,0,1,.694.691,2.012,2.012,0,0,0,2.828,0,2.044,2.044,0,0,0,0-2.828A9.549,9.549,0,0,0,13.91,119.4a8.067,8.067,0,0,0-3.965,1.26,6.259,6.259,0,0,0-2.553,3.633,6.687,6.687,0,0,0,3.947,7.513c2.747,1.227,6.088,1.71,8.735-.046a6.394,6.394,0,0,0,2.845-3.976,6.068,6.068,0,0,0-1.325-5.227,2.008,2.008,0,0,0-2.828,0A2.052,2.052,0,0,0,18.766,125.38Z"/><path class="b" d="M43.4,103.771c.04.117.077.234.106.354l.017.072q.062.336-.009-.094a1.254,1.254,0,0,1-.006.59l.032-.237c-.013.073-.028.146-.046.218-.029.122-.071.239-.1.359-.083.314.008-.084.033-.061a2.912,2.912,0,0,1-.214.4,1.256,1.256,0,0,1-.166.249c.327-.276.07-.1-.023,0-.065.068-.182.23-.271.256.031-.009.379-.249.042-.04-.121.076-.384.306-.528.3l.2-.079c-.071.029-.142.055-.215.079a4.545,4.545,0,0,1-.442.127,1.979,1.979,0,0,1-.38.074c.066,0,.443-.028.067-.023-.237,0-.475-.012-.711-.009-.306,0,.467.114-.026,0-.106-.025-.212-.043-.318-.069s-.212-.056-.316-.089c-.15-.047-.463-.178-.146-.035a7.759,7.759,0,0,1-1.288-.774c-.108-.076-.214-.156-.321-.234-.257-.186.348.308-.032-.031-.2-.174-.4-.341-.584-.526-.165-.163-.314-.339-.469-.513-.2-.22.233.394-.008-.022-.05-.087-.111-.169-.162-.256s-.094-.179-.145-.266c-.239-.406.064.267-.008-.011-.032-.124-.081-.243-.113-.368s-.083-.578-.039-.1a5.184,5.184,0,0,1-.025-.623,1.189,1.189,0,0,1,.018-.3l-.033.244c.012-.07.026-.14.042-.209.025-.113.079-.512.183-.593-.094.073-.174.335-.033.114.07-.11.138-.226.2-.339.205-.359-.235.2-.038.044a2.9,2.9,0,0,0,.219-.236c.061-.06.126-.114.188-.173.27-.258-.088.1-.105.077s.512-.306.544-.324c.254-.145-.055.112-.131.049.008.007.338-.113.359-.119.08-.022.164-.036.245-.06.4-.118-.364-.005-.1,0,.2.007.408-.023.611-.017.1,0,.2.007.3.014.035,0,.509.066.171.011s.134.03.165.036c.143.029.284.063.424.1.106.029.6.269.686.226-.09.044-.337-.162-.079-.031.129.065.26.126.387.195a7.081,7.081,0,0,1,.617.379c.023.016.389.309.148.1s.145.132.189.172a7.156,7.156,0,0,1,.567.575,1.731,1.731,0,0,1,.192.226q-.216-.287-.086-.11c.044.06.088.121.13.183q.213.312.394.644c.06.113.118.226.173.341.226.473-.075-.218.071.165a2.046,2.046,0,0,0,2.46,1.4,2.023,2.023,0,0,0,1.4-2.46,9.424,9.424,0,0,0-5.768-5.734,6.652,6.652,0,0,0-7.236,1.587,6.053,6.053,0,0,0-1.473,3.969,6.759,6.759,0,0,0,1.673,4.323,10.737,10.737,0,0,0,3.2,2.555,7.6,7.6,0,0,0,4.683.8c3.421-.5,6.1-4.066,4.921-7.5a2,2,0,1,0-3.857,1.063Z"/><path class="c" d="M324.8,171.535c-7.471-13.872-12.434-27.272-13.421-42.9-.566-8.947-.053-21.893,4.715-29.485,6.314-10.053,16.222-11.733,31.546-11.286,14.25.415,22.546,14.286,21.067,27.59-1.1,9.875-1.368,16.372-11.18,25.392-9.642,8.865-14.192,18.717-17.223,32.046"/><path class="d" d="M100.915,189.737c8.725-1.328,16.133-5.549,19.421-10.481l1.143-1.834a56.718,56.718,0,0,1-15.27-13.139,63.265,63.265,0,0,1-12.056-23.534c-1.479-.225-2.375-.363-2.375-.363a15.667,15.667,0,0,1-7.289-3.285,19.22,19.22,0,0,1-2.532-2.488,30.975,30.975,0,0,0-3.134,10.357,50.812,50.812,0,0,0-.351,6.905q.014.7.052,1.411c.274,5.036,1.45,10.165,1.7,15.181.253,5.466-1.17,10.846-6.383,12.616-.206.07-.247.737-.241.906a2.362,2.362,0,0,0,.418,1.168,8.065,8.065,0,0,0,2.672,2.344C82.5,189.064,91.448,191.177,100.915,189.737Z"/><path class="d" d="M224.222,61.314c-.235-1.372-.475-2.641-.709-3.783-6.465-31.7-38.4-56.872-71.887-55.033C118.137.659,86.2,25.826,79.738,57.531c-1.752,8.551-1.542,23.182.051,30.008L83,100.1a9.227,9.227,0,0,1,6.639,2.25c13.236-9.182,35.685-25.13,47.31-35.127-.956,5.934-4.354,16.026-.074,14.989,17.87-4.138,35-12.482,45.352-25.5,2.182,7.686,5.79,18.071,8.44,22.609,3.75,6.421,14.616,20.87,23.75,23.03a9.3,9.3,0,0,1,7.44-2.177,9.1,9.1,0,0,1,1.159.253C227.664,89.646,226.1,72.241,224.222,61.314Z"/><path class="b" d="M82.067,87.173a57.1,57.1,0,0,1-1.13-11.088,101.237,101.237,0,0,1,.453-13.533,58.614,58.614,0,0,1,7.964-23.284A71.151,71.151,0,0,1,128.914,7.82a64.412,64.412,0,0,1,12.629-2.673A133.428,133.428,0,0,1,154.884,4.8a65.3,65.3,0,0,1,25.474,5.216,70.909,70.909,0,0,1,36.469,34.824c3.341,7.163,4.951,14.923,5.919,22.727,1.076,8.683,1.659,17.888-.25,26.5a32.929,32.929,0,0,1-1.754,5.613,2.414,2.414,0,0,0,1.677,2.952,2.462,2.462,0,0,0,2.952-1.676c3.541-8.46,3.465-18.393,2.779-27.383-.643-8.423-1.82-17.1-4.678-25.089-6.169-17.235-19.318-31.65-35.467-40.126A72.635,72.635,0,0,0,161.352.311a63.829,63.829,0,0,0-6.829-.3c-2.295.021-4.583-.02-6.878,0a68.748,68.748,0,0,0-13.8,1.549,76,76,0,0,0-45.191,30A67.033,67.033,0,0,0,77.605,56.037a85.267,85.267,0,0,0-1.026,26.886,47.506,47.506,0,0,0,.86,5.526c.687,3.01,5.316,1.736,4.628-1.276Z"/><path class="b" d="M180.173,58.28c1.3,4.442,2.741,8.847,4.382,13.174a58.436,58.436,0,0,0,4.595,10.008A74.6,74.6,0,0,0,203.289,98.5c3.041,2.651,6.507,5.17,10.485,6.158,3,.744,4.277-3.884,1.276-4.629A20.278,20.278,0,0,1,207.2,95.55a63.249,63.249,0,0,1-7.839-8.093,58.737,58.737,0,0,1-9.75-16.179c-1.824-4.677-3.4-9.456-4.806-14.274-.865-2.959-5.5-1.7-4.628,1.276Z"/><path class="b" d="M180.705,54.785c-5.933,7.49-13.753,13.114-22.266,17.34a94.776,94.776,0,0,1-13.836,5.5q-3.647,1.142-7.366,2.034c-.333.08-.668.177-1,.238-.257.046-.245-.063.1-.012-.452-.067.173.022.191.03a5.135,5.135,0,0,0,.544.309c.027.017.234.408.164.2a3.282,3.282,0,0,1-.077-.354c.114.578.008-.065.01-.179.059-3.947,1.422-7.973,2.093-12.028a2.422,2.422,0,0,0-4.011-2.335c-11.7,10.037-24.4,18.957-36.97,27.849q-4.911,3.472-9.854,6.9a2.462,2.462,0,0,0-.861,3.284,2.421,2.421,0,0,0,3.283.861c13.075-9.072,26.067-18.3,38.632-28.071,3.1-2.414,6.179-4.869,9.164-7.431l-4.011-2.335c-.693,4.189-2.115,8.341-2.262,12.606-.063,1.815.288,3.885,1.942,4.936,1.9,1.209,4.449.12,6.408-.392C151.442,80.928,162,76.613,171.1,70.219a61.631,61.631,0,0,0,13-12.04,2.476,2.476,0,0,0,0-3.394,2.417,2.417,0,0,0-3.394,0Z"/><path class="b" d="M79.875,133.4c-3.5,6.91-4.336,14.856-3.538,22.492.444,4.254,1.323,8.471,1.492,12.752.106,2.683-.107,5.706-1.727,7.962a6.313,6.313,0,0,1-2.73,2.095A3.5,3.5,0,0,0,71.5,183.43c1.231,3.4,5.571,5.2,8.672,6.446a40.992,40.992,0,0,0,22.868,1.919c7.334-1.417,15.055-4.991,19.374-11.324,1.745-2.558-2.412-4.962-4.144-2.422a20.489,20.489,0,0,1-7.994,6.342,33.924,33.924,0,0,1-12.366,3.287,37.216,37.216,0,0,1-13.19-1.3,28.424,28.424,0,0,1-5.326-2.1,15.728,15.728,0,0,1-2.485-1.5,5.119,5.119,0,0,1-.819-.826c-.242-.3-.152.179-.039-.129l-.617,1.059.107-.1-1.059.617a11.718,11.718,0,0,0,7.457-8.119c1.19-4.175.639-8.579.069-12.8-1.212-8.972-2.232-18.255,2.013-26.645,1.391-2.75-2.749-5.182-4.145-2.422Z"/><path class="b" d="M216.109,104.045a6.858,6.858,0,0,1,7.911-.575c2.894,1.754,3.111,5.242,3.17,8.308a33.686,33.686,0,0,1-6.076,20.24,14.784,14.784,0,0,1-9.483,6.054,2.421,2.421,0,0,0-1.677,2.953,2.457,2.457,0,0,0,2.953,1.676c9.239-1.57,14.722-10.244,17.313-18.55a39.022,39.022,0,0,0,1.721-13.692c-.253-4.527-1.5-8.828-5.659-11.231a11.791,11.791,0,0,0-13.567,1.423,2.421,2.421,0,0,0,0,3.394,2.449,2.449,0,0,0,3.394,0Z"/><path class="b" d="M209.773,133.465a36.88,36.88,0,0,1-2.271,10.423c-.153.459-.306.919-.47,1.375-.088.246-.2.482-.02.072q-.139.324-.286.646c-.423.926-.887,1.833-1.37,2.729A83.588,83.588,0,0,1,194.625,164.1a61.356,61.356,0,0,1-8.919,8.5,2.477,2.477,0,0,0-.861,3.284,2.415,2.415,0,0,0,3.283.861,76.457,76.457,0,0,0,15.97-16.985c2.995-4.23,6.074-8.848,7.762-13.794a43.261,43.261,0,0,0,2.713-12.5c.1-3.09-4.7-3.087-4.8,0Z"/><path class="b" d="M91.331,100.651A11.747,11.747,0,0,0,79.353,98.48a11.272,11.272,0,0,0-4.949,3.775,13.133,13.133,0,0,0-2.154,6.464,37.875,37.875,0,0,0,6.537,25.722C81.8,138.582,86,141.827,91.14,142.7a2.471,2.471,0,0,0,2.952-1.676,2.42,2.42,0,0,0-1.676-2.953c-7.126-1.21-11.3-7.551-13.542-13.934a35.115,35.115,0,0,1-2.016-10.819c-.071-3.058-.178-7.018,2.308-9.227a6.841,6.841,0,0,1,8.771-.047,2.462,2.462,0,0,0,3.394,0,2.421,2.421,0,0,0,0-3.394Z"/><path class="b" d="M89.838,132.466a74.5,74.5,0,0,0,9.445,26.255c5.367,8.771,13.137,16.692,22.289,21.5a42.926,42.926,0,0,0,15.659,4.724,2.416,2.416,0,0,0,2.4-2.4,2.454,2.454,0,0,0-2.4-2.4c-18.851-1.939-33.517-18.8-39.428-35.789a83.239,83.239,0,0,1-3.337-13.166,2.419,2.419,0,0,0-2.952-1.676,2.454,2.454,0,0,0-1.676,2.952Z"/><path class="b" d="M152.14,124.065a56.213,56.213,0,0,1,1.326,6.067l-.085-.638a3.672,3.672,0,0,1,.022.838l.086-.638a2.053,2.053,0,0,1-.092.377l.242-.574a1.113,1.113,0,0,1-.082.166q.447-.526.2-.273.574-.414.193-.188c-.086.045-.173.087-.262.126l.574-.242a3.478,3.478,0,0,1-.811.237l.638-.086a3.22,3.22,0,0,1-.76,0l.638.086c-.286-.04-.568-.109-.855-.148a2.655,2.655,0,0,0-1.849.242,2.4,2.4,0,0,0-.861,3.284,2.294,2.294,0,0,0,1.434,1.1c.59.08,1.162.232,1.761.258a5.489,5.489,0,0,0,2.514-.586,3.48,3.48,0,0,0,1.972-2.308,6.071,6.071,0,0,0-.03-2.567c-.33-1.955-.782-3.892-1.284-5.809a2.4,2.4,0,0,0-4.629,1.276Z"/><path class="b" d="M170.293,105.245a27.93,27.93,0,0,0,10.413-9.966,2.4,2.4,0,1,0-4.145-2.423c-.283.464-.578.92-.889,1.366-.163.233-.331.463-.5.692-.26.351.23-.287.044-.055-.081.1-.16.2-.242.3a25.28,25.28,0,0,1-2.209,2.395q-.561.535-1.156,1.036c-.217.184-.44.361-.662.54s.406-.3.056-.044l-.312.231a25.581,25.581,0,0,1-2.82,1.781,2.421,2.421,0,0,0-.861,3.283,2.449,2.449,0,0,0,3.283.861Z"/><path class="b" d="M186.161,117.484c-4.873,1.772-11.89,1.592-15.12-2.754-.916-1.232-.46-3.569.588-4.573a4.925,4.925,0,0,1,3.674-1.041l7.844,0c1.922,0,4.412.378,4.986,2.923C188.664,114.394,187.882,116.858,186.161,117.484Z"/><path class="b" d="M119.8,117.484c4.872,1.772,11.89,1.592,15.119-2.754.916-1.232.46-3.569-.588-4.573a4.922,4.922,0,0,0-3.673-1.041l-7.845,0c-1.922,0-4.411.378-4.985,2.923C117.293,114.394,118.075,116.858,119.8,117.484Z"/><path class="b" d="M156.1,105.181v5.35a2.479,2.479,0,0,0,.7,1.7,2.4,2.4,0,0,0,4.1-1.7v-5.35a2.478,2.478,0,0,0-.7-1.7,2.4,2.4,0,0,0-4.1,1.7Z"/><path class="b" d="M147.214,105.181v5.35a2.475,2.475,0,0,0,.7,1.7,2.4,2.4,0,0,0,4.1-1.7v-5.35a2.479,2.479,0,0,0-.7-1.7,2.4,2.4,0,0,0-4.1,1.7Z"/><path class="b" d="M74.848,381.923c2.1-14.913,3.482-29.917,2.256-44.969a2.462,2.462,0,0,0-2.4-2.4,2.419,2.419,0,0,0-2.4,2.4c1.19,14.612-.048,29.211-2.084,43.692A2.482,2.482,0,0,0,71.9,383.6a2.418,2.418,0,0,0,2.952-1.676Z"/><path class="a" d="M336.323,203.355c.444-7.722.921-13.654,1.365-21.359a46.072,46.072,0,0,1-13.353-1.578c-.552,5.207-1.825,19.871-2.129,23.733"/><path class="a" d="M325.228,204.345c1.254-1.156,3.146-1.235,4.558-1.245a28.541,28.541,0,0,1,7.2.791c9.328,1.665,10.838,9.619,11.339,12.427A131.2,131.2,0,0,1,349.9,232.5a46.858,46.858,0,0,1-.782,10.534c-.978,4.564-1.549,6.99-4.7,11.71-3.836,6.107-17.58,8.759-23.754,9.907a5.487,5.487,0,0,0-3.188,1.648c-1.836,2.544-5.358,14.391-7.607,21.963-3.986,12.847-13.625,39.581-26.63,53.555-3.08,4.753-18.77,6.1-23.125,3.636A17.266,17.266,0,0,1,254.9,339.2c-6.353-15.362-2.088-31.153,9.594-44.155,2.283-3.152,5.366-6.659,7.535-9.317.419-.513,17.755-28.066,17.756-29.63a18.931,18.931,0,0,0,.8-1.9A49.21,49.21,0,0,0,293.649,241c.328-5.71-1.036-11.579.511-17.084a33.358,33.358,0,0,1,4.539-8.848c3.583-5.542,5.588-12.421,9.171-17.963,1.327-2.052,4.771-3.035,7.193-2.712,1.781.237,3.013,1.844,4.038,3.32l1.849,3a6.5,6.5,0,0,0,1.828,1.93Z"/><path class="b" d="M326.943,242.153c2.763-.121,5.529-.227,8.3-.229a2.4,2.4,0,0,0,0-4.8c-2.766,0-5.532.108-8.3.229a2.4,2.4,0,1,0,0,4.8Z"/><path class="b" d="M326.572,224.123a8.82,8.82,0,0,0-7.633,5.05c-1.758,3.878-.8,8.851,2.756,11.344a10.849,10.849,0,0,0,5.248,1.636,2.407,2.407,0,0,0,2.4-2.4,2.464,2.464,0,0,0-2.4-2.4,1.707,1.707,0,0,0-.393-.042c-.022,0,.562.088.309.04-.065-.012-.132-.02-.2-.031-.287-.049-.572-.109-.853-.182-.261-.068-.516-.153-.771-.24-.442-.151.2.106.075.038s-.283-.134-.421-.209a5.586,5.586,0,0,0-.683-.434s.388.336.219.166c-.047-.048-.1-.089-.155-.135q-.179-.162-.342-.341c-.067-.073-.4-.4-.127-.138.257.24-.033-.068-.1-.176-.079-.129-.148-.262-.22-.4-.253-.468.081.306-.038-.078a10.035,10.035,0,0,1-.272-.992c-.047-.236-.043-.516-.026-.1-.01-.236-.039-.47-.047-.706s-.009-.486,0-.729c0-.093.019-.189.019-.282,0-.275-.008.161-.034.184.134-.121.2-.883.263-1.087a.914.914,0,0,1,.083-.233c.022-.009-.222.441-.084.2.078-.136.138-.284.216-.421s.16-.263.241-.394c.281-.452-.223.226.031-.056.195-.217.388-.432.605-.63.088-.08.262-.175.323-.276,0,0-.415.292-.209.164.078-.047.15-.105.226-.156a6.984,6.984,0,0,1,.8-.461c.057-.028.115-.053.172-.083.291-.151-.172.093-.233.1a1.872,1.872,0,0,0,.389-.14c.242-.079.487-.128.734-.188.438-.106-.512,0-.212.029.109.009.229-.011.339-.01a2.4,2.4,0,0,0,0-4.8Z"/><path class="b" d="M337.089,224.161c-3.5-.15-7.011,0-10.517-.038a2.4,2.4,0,1,0,0,4.8c3.506.034,7.013-.112,10.517.038a2.417,2.417,0,0,0,2.4-2.4,2.45,2.45,0,0,0-2.4-2.4Z"/><path class="b" d="M326.235,212.314a8.217,8.217,0,0,0-6.435,6.758,8.975,8.975,0,0,0,2.884,8.134,7.733,7.733,0,0,0,3.25,1.632,2.4,2.4,0,0,0,1.276-4.629,4.76,4.76,0,0,1-.513-.131c-.108-.034-.213-.076-.32-.113-.344-.117.585.289.241.1-.2-.11-.4-.2-.6-.328-.087-.055-.17-.119-.257-.173-.321-.2.487.449.062.041-.179-.172-.352-.345-.524-.526-.37-.389.281.429.039.058-.069-.106-.143-.208-.209-.316-.091-.15-.176-.3-.253-.461l-.059-.123q-.153-.345.079.187a5.108,5.108,0,0,0-.3-1.009,1.478,1.478,0,0,1-.086-.481c.047.359.056.4.028.127-.01-.119-.018-.238-.023-.358-.008-.187-.01-.375-.008-.563,0-.077-.007-.82,0-.428.009.362.055-.254.083-.358.015-.057.083-.448.151-.476q-.213.478-.048.124c.047-.1.1-.191.15-.284.08-.139.168-.27.257-.4q.228-.314-.087.11c.067-.08.137-.159.208-.235.107-.114.219-.223.334-.328.077-.07.155-.138.235-.2q-.4.3-.179.14c.154-.084.3-.2.446-.3q.194-.117.395-.221c.089-.046.178-.089.269-.131q-.522.213-.167.071a8.927,8.927,0,0,1,.947-.278,2.419,2.419,0,0,0,1.677-2.952,2.456,2.456,0,0,0-2.953-1.677Z"/><path class="b" d="M334.763,212.421c-2.628-.131-5.258-.211-7.89-.192a2.4,2.4,0,1,0,0,4.8c2.632-.019,5.262.061,7.89.192a2.416,2.416,0,0,0,2.4-2.4,2.454,2.454,0,0,0-2.4-2.4Z"/><path class="b" d="M328.085,212.556c-.329-.191-.667-.366-.993-.559-.176-.105-.349-.211-.518-.326-.026-.017-.289-.23-.1-.067.216.181-.251-.261-.243-.252a1.946,1.946,0,0,1-.388-.7,4.763,4.763,0,0,1-.2-2.046c.338-2.58,3.816-2.64,5.773-2.625,3.055.024,6.586.262,9.347,1.689a8.553,8.553,0,0,1,4.011,4.194c.057.115.265.615.119.249q.12.3.227.611c.147.421.274.849.386,1.281.192.737.333,1.484.46,2.235.51,3,.918,6,1.159,9.035.522,6.577.819,12.934-.691,19.4a25.341,25.341,0,0,1-3.352,8.022,11.956,11.956,0,0,1-4.82,4.412c-4.5,2.465-9.691,3.673-14.681,4.7-2.3.474-4.832.652-6.778,2.091-1.82,1.346-2.588,3.769-3.367,5.8-2.129,5.547-3.769,11.29-5.461,16.981A208.277,208.277,0,0,1,296.4,316.917a120.858,120.858,0,0,1-9.189,16.3,61,61,0,0,1-5.136,6.579c-.284.312-.554.623-.81.959s.268-.242-.063.078c-.136.131-.27.266-.4.4-.256.252.206-.1-.235.185a11.768,11.768,0,0,1-2.389,1.21,31.754,31.754,0,0,1-13.911,1.532c-.117-.011-.689-.082-.521-.058s-.365-.064-.471-.083a12.632,12.632,0,0,1-1.3-.3c-.175-.051-.345-.115-.518-.17-.432-.136.332.2-.029-.014a12.346,12.346,0,0,1-1.96-1.309c-2.525-2.212-3.625-4.9-4.488-8.09a34.039,34.039,0,0,1,.57-19.231c2.1-6.626,5.946-12.45,10.449-17.68,2.329-2.706,4.47-5.607,6.76-8.354a27.255,27.255,0,0,0,2.066-2.725c1.645-2.564,3.257-5.15,4.866-7.737,3.969-6.377,8.154-12.732,11.609-19.41a6.928,6.928,0,0,0,.989-2.75l-.328,1.211a44.724,44.724,0,0,0,4.225-19.8,83.949,83.949,0,0,1-.16-9.98A20.246,20.246,0,0,1,299.249,219c1.569-2.586,3.183-5.078,4.5-7.813,1.374-2.865,2.584-5.808,4.009-8.649,1.072-2.137,1.94-4.577,4.37-5.324,1.641-.5,3.935-.638,5.066.813.775,1,.326,2.615.23,3.792-.147,1.826-.354,3.647-.637,5.457a84.136,84.136,0,0,1-2.655,11.5c-.9,2.961,3.729,4.227,4.628,1.276a87.149,87.149,0,0,0,3.187-15.408c.271-2.338.885-5.193.121-7.474a7.108,7.108,0,0,0-3.937-4.247,10.6,10.6,0,0,0-11.282,1.943,21.292,21.292,0,0,0-3.427,5.64c-1.055,2.139-2,4.33-2.993,6.5a59.439,59.439,0,0,1-3.241,6.288c-1.244,2.037-2.606,3.991-3.656,6.141-2.3,4.705-2.554,9.583-2.3,14.729a58.9,58.9,0,0,1,.078,7.689,37.506,37.506,0,0,1-1.492,7.388c-.35,1.2-.736,2.4-1.138,3.582-.183.538-.358,1.084-.579,1.609-.086.2-.192.405-.282.607l-.242.573q-.149,1.1-.045.347c.2-.228.045-.281-.073.058.3-.864.049-.136-.1.161-1.9,3.833-4.246,7.476-6.465,11.126q-4.038,6.643-8.186,13.221c-.778,1.237-1.55,2.479-2.351,3.7a2.707,2.707,0,0,0-.232.352c-.066.151-.342.9.311-.394a8.2,8.2,0,0,1-1.07,1.294c-1.484,1.78-2.985,3.545-4.429,5.358a129.606,129.606,0,0,0-8.678,11.394,48.964,48.964,0,0,0-5.624,12.345,37.889,37.889,0,0,0,1.558,26.052,14.909,14.909,0,0,0,8.328,7.667,25.07,25.07,0,0,0,8.533.783,36.826,36.826,0,0,0,9.778-1.6,16.8,16.8,0,0,0,3.982-1.79,15.078,15.078,0,0,0,2.876-2.73,91.71,91.71,0,0,0,12.878-19.6c6.655-13,11.377-26.734,15.625-40.663,1.114-3.652,2.244-7.309,3.569-10.891a22.378,22.378,0,0,1,1.418-3.359,4.351,4.351,0,0,1,.321-.559c.2-.269.015-.016-.02.016.2-.18-.925.379.3-.232a7.25,7.25,0,0,1,1.941-.61c6.459-1.232,13.15-2.611,18.972-5.8a18.414,18.414,0,0,0,7.319-7.41,33.994,33.994,0,0,0,3.748-11.09,52.728,52.728,0,0,0,.5-12.65,131.093,131.093,0,0,0-1.52-14.339c-.909-5.293-3.016-10.245-8.248-12.576a27.992,27.992,0,0,0-13.411-1.949c-4.356.41-8.3,3.261-8.238,7.969a8.164,8.164,0,0,0,1.854,5.367,11.112,11.112,0,0,0,2.972,2.125c2.676,1.554,5.1-2.592,2.423-4.145Z"/><path class="b" d="M326.305,237.439a6.932,6.932,0,0,0-3.907,4.323,11.51,11.51,0,0,0-.356,6.275,7.327,7.327,0,0,0,3.194,4.413,10.343,10.343,0,0,0,6.039,1.306c1.1-.027,2.2-.125,3.3-.259.642-.079,1.283-.167,1.924-.255l.287-.039c.179-.024.495-.172.018,0a3.637,3.637,0,0,1,.731-.091,2.461,2.461,0,0,0,2.4-2.4c-.053-1.173-1.065-2.559-2.4-2.4-.644.077-1.287.165-1.93.253l-.575.078c.637-.087-.241.03-.353.044-1.012.126-2.028.223-3.047.261-.568.021-1.136.026-1.7.009-.287-.009-.574-.021-.86-.056.631.077-.181-.061-.3-.094-.177-.047-.348-.109-.522-.164q-.375-.145.085.039-.156-.073-.306-.156c-.148-.082-.286-.178-.431-.264q-.318-.228.091.079c-.083-.069-.163-.14-.242-.214-.133-.126-.245-.29-.383-.407-.114-.137-.07-.079.134.175-.061-.086-.119-.173-.173-.262a4.056,4.056,0,0,1-.292-.552c.028-.018.185.525.026-.013a6.143,6.143,0,0,1-.139-.615c.117.625,0-.179-.007-.317a11.672,11.672,0,0,1,.036-1.63c.058-.664-.113.46.032-.172.058-.255.108-.509.181-.76.06-.21.138-.411.206-.618q.1-.251-.07.162.072-.156.153-.309c.035-.064.275-.567.343-.562-.2.252-.25.311-.137.175q.072-.088.15-.171c.067-.072.137-.141.21-.208q.291-.249-.152.107c.039,0,.892-.439.025-.08a2.466,2.466,0,0,0,1.677-2.952c-.36-1.111-1.711-2.192-2.953-1.676Z"/><path class="c" d="M182.783,205.509c-4.12,7.8-11.91,13.776-20.44,16.492-10.968,3.493-23.071,5.709-35.827,4.59-5.8-.509-13.826-1.928-18.593-5.272-4.812-3.375-7.818-10.034-5.206-15.324,2.57-6.446,25.983-12.382,35.025-14.061,17.877-3.319,39.774-7.214,46.1-2.551,1.305.962,1.563,2.625,1.574,4.247A25.216,25.216,0,0,1,182.783,205.509Z"/><path class="b" d="M180.71,204.3a32.482,32.482,0,0,1-14.572,13.623,55.342,55.342,0,0,1-10.293,3.473,97.619,97.619,0,0,1-11.645,2.356,74.93,74.93,0,0,1-22.945-.243c-6.127-1.082-12.962-2.907-16-8.885a9.794,9.794,0,0,1-1.091-3.962,7.5,7.5,0,0,1,.13-1.9,8.725,8.725,0,0,1,.275-.992c.026-.073.046-.163.074-.238.036-.095.545-1.137.329-.738-.189.352.068-.1.118-.175.1-.154.2-.31.307-.46-.238.333-.126.146.057-.037s.336-.352.513-.519c.142-.133.29-.258.436-.386.075-.067.155-.129.233-.193.28-.229-.291.213.011-.007q.636-.465,1.3-.882c4.349-2.712,9.237-4.311,14.142-5.819,11.579-3.561,23.624-5.643,35.6-7.351,6.2-.884,12.6-1.683,18.869-1.2a16.477,16.477,0,0,1,3.107.458,14.062,14.062,0,0,1,1.4.4c.156.055.721.3.285.1.2.095.405.193.6.3.944.53,1.053,1.384,1.07,2.612a24.931,24.931,0,0,1-.557,5.689,20.394,20.394,0,0,1-1.751,4.978c-1.412,2.742,2.729,5.173,4.145,2.423a27.922,27.922,0,0,0,2.959-12.41,8.784,8.784,0,0,0-1.527-5.855,7.937,7.937,0,0,0-3.366-2.246,23.328,23.328,0,0,0-7.684-1.333,73.747,73.747,0,0,0-9.924.372c-8.047.75-16.029,2.142-23.974,3.591-5.576,1.017-11.1,2.168-16.562,3.684a88.7,88.7,0,0,0-17.19,6.293,19.471,19.471,0,0,0-5.531,3.905,10.912,10.912,0,0,0-2.686,8.108,16.437,16.437,0,0,0,4.336,9.939,21.474,21.474,0,0,0,9.349,5.646c7.6,2.582,16.089,3.158,24.058,2.775a100.289,100.289,0,0,0,25.868-4.873,38.917,38.917,0,0,0,18.8-12.9,33.321,33.321,0,0,0,3.076-4.694C186.315,204,182.173,201.571,180.71,204.3Z"/><path class="e" d="M178.555,191.06c2.355-4.452,2.8-10.07-.089-14.122-2.259-3.171-6.152-4.861-10.019-5.313s-7.769.184-11.607.837c-9.843,1.675-19.728,3.489-29.074,7-8.964,3.372-17.483,8.418-23.75,15.638a7.005,7.005,0,0,0-2.055,5.41c.3,3.489,3,6.405,6.137,7.955a31.105,31.105,0,0,0,10.033,3.137c8.51,1,14.663,1.335,23.077-.277,7.1-1.36,16.271-3.227,22.646-6.644A41.71,41.71,0,0,0,177.4,192.936,16.651,16.651,0,0,0,178.555,191.06Z"/><path class="b" d="M180.627,192.271c2.978-5.791,3.32-13.193-1.416-18.184s-12.1-5.476-18.515-4.632a202.955,202.955,0,0,0-21.762,4.1,91.568,91.568,0,0,0-19.911,7.146A56.738,56.738,0,0,0,103.7,191.893c-2.308,2.425-4.371,5.071-4.134,8.621a11.632,11.632,0,0,0,4.1,7.838c5.384,4.673,13,5.636,19.817,6.2a72.49,72.49,0,0,0,20.213-1.27c6.928-1.358,14-2.885,20.378-6.02a42.636,42.636,0,0,0,9.229-6.317,33.141,33.141,0,0,0,7.326-8.678c1.481-2.712-2.663-5.137-4.145-2.422-2.786,5.1-7.794,9.275-12.76,12.16-4.785,2.781-10.249,4.231-15.607,5.453a84.829,84.829,0,0,1-17.144,2.573,78.39,78.39,0,0,1-9.063-.421,37.675,37.675,0,0,1-9.372-1.834c-2.471-.893-5.075-2.014-6.759-4.119a5.152,5.152,0,0,1-.775-5.94,15.919,15.919,0,0,1,2.371-2.729q1.564-1.614,3.279-3.074a51.056,51.056,0,0,1,6.835-4.871c10.728-6.469,23.1-9.275,35.3-11.456,6.344-1.134,14.136-3.351,20.226-.171a8.943,8.943,0,0,1,4.84,6,12.669,12.669,0,0,1-1.374,8.427C175.072,192.591,179.212,195.022,180.627,192.271Z"/><path class="f" d="M172.954,176.721a7.965,7.965,0,0,1-7.286,12.648,2.826,2.826,0,0,1,.6,3.572,6.772,6.772,0,0,1-2.942,2.567c-2.621,1.412-6.363,2.12-8.191-.231a18.575,18.575,0,0,1-4.072,4.717,9.25,9.25,0,0,1-14.614-6.065"/><path class="b" d="M170.882,177.933a5.6,5.6,0,0,1-5.214,9.036c-1.991-.169-3.281,2.807-1.7,4.1,1.2.976-2,2.492-2.672,2.763-1.462.592-3.35,1.067-4.466-.249-1.069-1.261-2.967-.686-3.769.485-2.012,2.94-4.348,5.661-8.262,5.265a7.029,7.029,0,0,1-6.037-6.039,2.422,2.422,0,0,0-2.953-1.677,2.455,2.455,0,0,0-1.676,2.953,11.682,11.682,0,0,0,17.509,7.92c2.386-1.455,4.013-3.733,5.563-6l-3.769.486c2.691,3.176,7.327,2.445,10.652.833a8.739,8.739,0,0,0,4.509-4.243,5.15,5.15,0,0,0-1.235-5.892l-1.7,4.1a10.347,10.347,0,0,0,9.358-16.259,2.463,2.463,0,0,0-3.283-.861,2.42,2.42,0,0,0-.861,3.284Z"/><path class="c" d="M169.658,156.774c3.2,1.924,5.68,4.635,6.406,8.278.75,3.762-.668,7.719-3.057,10.721a29.356,29.356,0,0,1-9.015,7.033c-17.618,9.752-52.3,15.961-58.471,5.714a12.955,12.955,0,0,1-1.2-8.955c1.6-7.627,7.642-13.589,14.23-17.754a60.119,60.119,0,0,1,41.042-8.488A28.569,28.569,0,0,1,169.658,156.774Z"/><path class="b" d="M168.447,158.847a10.864,10.864,0,0,1,5.034,5.778,10.334,10.334,0,0,1-1.585,8.595c-3.066,4.778-8.8,7.595-13.826,9.86A97.582,97.582,0,0,1,128.387,191a68.048,68.048,0,0,1-7.277.388,39.419,39.419,0,0,1-5.991-.434,24.569,24.569,0,0,1-2.5-.557c-.418-.118-.832-.248-1.24-.394-.2-.071-.391-.144-.584-.222.525.211-.253-.119-.345-.164a11.135,11.135,0,0,1-1.762-1.061c.5.372-.309-.294-.437-.423s-.23-.249-.346-.373c-.379-.406.265.423-.037-.039-3.252-4.981-.6-11.544,2.692-15.783,3.812-4.911,9.226-8.454,14.753-11.153a57.384,57.384,0,0,1,21.18-5.632c7.295-.493,15.5-.092,21.957,3.691,2.67,1.566,5.088-2.582,2.422-4.145-6.542-3.836-14.6-4.671-22.05-4.457a62.48,62.48,0,0,0-21.879,4.594c-6.572,2.7-12.97,6.394-17.913,11.57-4.849,5.078-8.437,12.059-7.095,19.237,1.933,10.334,14.507,10.913,22.881,10.444a102.471,102.471,0,0,0,33.98-8.124c5.694-2.418,11.812-5.453,15.782-10.336a16.974,16.974,0,0,0,4.087-10.348,13.577,13.577,0,0,0-3.877-9.509,19.379,19.379,0,0,0-3.916-3.071C168.229,153.083,165.815,157.232,168.447,158.847Z"/><path class="b" d="M323.156,217.376c.815-10.268,1.934-20.52,2.953-30.77.205-2.065.409-4.13.627-6.193a2.416,2.416,0,0,0-2.4-2.4,2.454,2.454,0,0,0-2.4,2.4c-1.109,10.478-2.093,20.971-3.081,31.461-.172,1.833-.353,3.666-.5,5.5a2.421,2.421,0,0,0,2.4,2.4,2.448,2.448,0,0,0,2.4-2.4Z"/><path class="b" d="M335.3,181.882c-.414,7.161-.958,14.313-1.372,21.473a2.4,2.4,0,0,0,4.8,0c.414-7.16.958-14.312,1.372-21.473a2.4,2.4,0,0,0-4.8,0Z"/><path class="b" d="M326.877,170.324c-7.658-14.26-12.954-29.479-13.262-45.8-.133-7,.284-14.416,2.922-20.981a19.921,19.921,0,0,1,10.8-11.036c5.928-2.368,12.573-2.415,18.858-2.287A20.124,20.124,0,0,1,355.1,92.1a19.157,19.157,0,0,1,6.52,5.416,24.857,24.857,0,0,1,4.791,16.772c-.388,5.671-1.014,11.788-3.86,16.806a35.743,35.743,0,0,1-7.011,8.324,56.977,56.977,0,0,0-7.337,8.324,60.9,60.9,0,0,0-8.826,19.059c-.515,1.8-.968,3.624-1.387,5.453-.689,3.007,3.938,4.29,4.628,1.276,1.66-7.246,3.957-14.353,7.927-20.687a48.554,48.554,0,0,1,6.709-8.4c2.909-2.934,5.931-5.614,8.277-9.056,3.8-5.579,4.708-11.986,5.423-18.541.745-6.826-.2-13.648-3.768-19.627a23.541,23.541,0,0,0-15.8-11.351,54.608,54.608,0,0,0-11.574-.4,51.042,51.042,0,0,0-10.221,1.3,25.082,25.082,0,0,0-14.862,10.1c-4.26,6.119-5.413,14.037-5.809,21.316-.922,16.963,3.35,33.4,10.74,48.579.982,2.015,2.012,4.006,3.072,5.981,1.462,2.722,5.607.3,4.145-2.423Z"/><path class="g" d="M341.015,172.684c-1.788-.251-15.216-1.669-18.292-1.647-.547,1.849-.035,7.854.2,9.508,2.087,2.029,14.066,3.02,16.187,1.681C340.34,181.451,341.344,174.215,341.015,172.684Z"/><path class="b" d="M341.653,170.369c-3.053-.421-6.127-.7-9.194-1-3.221-.312-6.5-.741-9.736-.732a2.448,2.448,0,0,0-2.314,1.762,15.833,15.833,0,0,0-.314,4.537c.043,1.563.151,3.127.317,4.682a3.992,3.992,0,0,0,.88,2.685,5.069,5.069,0,0,0,1.442.945,17.091,17.091,0,0,0,3.947,1.2,40.15,40.15,0,0,0,9.3.767,11.675,11.675,0,0,0,3.468-.523,4.583,4.583,0,0,0,2.747-3.159,24.69,24.69,0,0,0,1.056-5.132,13.854,13.854,0,0,0,.077-4.353,2.423,2.423,0,0,0-2.952-1.677,2.452,2.452,0,0,0-1.676,2.953c.062.331-.028-.695-.035-.21,0,.146.012.294.012.441,0,.432-.025.864-.059,1.294-.036.451-.087.9-.141,1.35.058-.485-.017.108-.044.283-.042.276-.088.552-.138.826a19.771,19.771,0,0,1-.65,2.719c-.024.075-.243.686-.092.295s-.064.1-.1.191c-.208.472.209-.2.082-.079.177-.166.534-.364.149-.164.676-.352.122-.074-.241,0-.15.031-.306.044-.453.08-.251.061.3-.039.283-.038-.126.006-.254.028-.38.04a24.277,24.277,0,0,1-2.587.081c-1.031-.015-2.062-.074-3.089-.166-.492-.045-.983-.1-1.474-.158-.1-.011-.474-.066.014,0l-.308-.045c-.269-.042-.538-.082-.807-.128a23.134,23.134,0,0,1-2.954-.675c-.2-.061-.39-.13-.585-.2-.592-.2.207.133-.064-.02-.153-.087-.315-.168-.471-.251-.047-.025-.088-.064-.135-.087-.348-.162.444.373.189.137l.617,1.059c.13.934,0-.057-.026-.289-.039-.365-.073-.73-.1-1.1-.076-.884-.137-1.771-.177-2.658s-.066-1.794-.042-2.691c.009-.352.037-.7.056-1.051.03-.544-.064.121-.006,0a2.947,2.947,0,0,0,.1-.448l-2.315,1.762c3.17-.009,6.371.407,9.522.711q2.69.26,5.377.547,1.042.111,2.085.23c.249.028.5.057.748.087s1.006.135-.078-.014a2.483,2.483,0,0,0,2.952-1.676A2.418,2.418,0,0,0,341.653,170.369Z"/><path class="b" d="M230.206,290.984c-.054,13.187-4.446,25.89-6.164,38.88a58.019,58.019,0,0,0-.207,7.128q-.025,3.675.032,7.349.131,7.773.7,15.53c.522,7.162,1.312,14.3,2.256,21.418a2.48,2.48,0,0,0,2.4,2.4c1.165,0,2.572-1.106,2.4-2.4a324.041,324.041,0,0,1-2.921-35.24c-.108-4.774-.088-9.549.007-14.323a53.883,53.883,0,0,1,1.352-8.992c.629-3.248,1.328-6.482,2-9.721,1.5-7.247,2.917-14.6,2.947-22.029.013-3.089-4.787-3.093-4.8,0Z"/><path class="b" d="M281.119,342.4c-.726,4.527-3.541,8.79-6.493,12.2a24.447,24.447,0,0,1-1.92,2.009c-.131.121-.266.239-.4.357-.012.011-.518.4-.2.165.447-.334-.653.434-.576.384q-.591.388-1.209.734a19.243,19.243,0,0,1-7.249,2.3A28.639,28.639,0,0,1,249.82,358.7c-.458-.174-.593-.23-.75-.3-.319-.143-.636-.29-.947-.447a25.791,25.791,0,0,1-2.763-1.629,31.3,31.3,0,0,1-5.261-4.544,54.439,54.439,0,0,1-10.122-16.314,2.415,2.415,0,0,0-3.284-.861,2.465,2.465,0,0,0-.861,3.284c4.311,10.151,11.229,20.7,21.808,25.078,9.343,3.87,22.025,3.851,29.426-3.923,3.908-4.1,7.767-9.669,8.681-15.37a2.474,2.474,0,0,0-1.676-2.952,2.419,2.419,0,0,0-2.952,1.676Z"/><path class="b" d="M249.086,296.556a46.348,46.348,0,0,0-5.649,11.8,2.42,2.42,0,0,0,1.676,2.952,2.454,2.454,0,0,0,2.953-1.676q.456-1.442,1.008-2.851c.1-.25.2-.5.3-.747-.22.535.114-.261.155-.353q.306-.692.636-1.372a44,44,0,0,1,3.064-5.325,2.417,2.417,0,0,0-.861-3.284,2.458,2.458,0,0,0-3.284.861Z"/><path class="b" d="M192.377,209.023c7.252,1.992,14.665,3.216,21.72,5.907a61.112,61.112,0,0,1,9.514,4.352,46.111,46.111,0,0,1,8.229,6.442A54.7,54.7,0,0,1,243.884,242.9c3.342,7.405,5.7,15.317,8.087,23.069q4.433,14.4,9.229,28.666c.972,2.916,5.61,1.666,4.629-1.276-2.925-8.77-5.839-17.537-8.53-26.382-2.466-8.1-4.972-16.256-8.229-24.085a60.228,60.228,0,0,0-12.055-18.786,58.427,58.427,0,0,0-8.731-7.521,49.281,49.281,0,0,0-9.392-4.9,95.8,95.8,0,0,0-13.137-4.372c-4.023-1.019-8.1-1.824-12.1-2.923-2.983-.82-4.255,3.81-1.276,4.628Z"/><path class="b" d="M72.8,343.356c-2.577,6.412-8.886,11.571-15.111,14.219A20.622,20.622,0,0,1,38.519,356c-6.172-3.9-9.616-10.551-11.263-17.481a54.612,54.612,0,0,1-1.372-11.393,66.476,66.476,0,0,1,.5-10.484c2.263-14.816,6.8-29.188,11.984-43.22q3.41-9.227,7.122-18.339.78-1.917,1.58-3.827c.088-.209.269-.636.492-1.153q.3-.691.6-1.379c1.08-2.43,2.286-4.8,3.564-7.134,3.2-5.827,6.893-12.152,12.328-16.177,6.491-4.809,14.211-8.084,21.726-10.918q3.1-1.168,6.24-2.216c2.914-.975,1.664-5.613-1.276-4.628-8.616,2.884-17.262,6.282-25.08,10.956a37.785,37.785,0,0,0-8.518,6.616,61.343,61.343,0,0,0-6.985,9.5c-6.558,10.646-10.847,22.593-15.238,34.245C29.4,283.637,24.379,298.68,21.938,314.2a68.618,68.618,0,0,0,.274,23.677c1.53,7.833,5.065,15.512,11.457,20.535a25.5,25.5,0,0,0,22.177,4.855,34.7,34.7,0,0,0,18.92-13.593,25.327,25.327,0,0,0,2.662-5.037,2.417,2.417,0,0,0-1.676-2.953,2.459,2.459,0,0,0-2.952,1.676Z"/><path class="b" d="M43.394,284.624a13.12,13.12,0,0,0-3.087,2.552A15.486,15.486,0,0,0,37.93,290.6a2.549,2.549,0,0,0-.242,1.849,2.4,2.4,0,0,0,2.952,1.676,2.384,2.384,0,0,0,1.434-1.1,13.161,13.161,0,0,1,1.349-2.154l-.375.485a12.925,12.925,0,0,1,2.256-2.288l-.486.376a9.876,9.876,0,0,1,1-.676,2.483,2.483,0,0,0,1.1-1.434,2.446,2.446,0,0,0-.242-1.849,2.417,2.417,0,0,0-1.434-1.1,2.5,2.5,0,0,0-1.849.242Z"/><path class="b" d="M50.174,211.007a26.006,26.006,0,0,0-7.386,5.415,23.568,23.568,0,0,0-5.331,8.1,2.411,2.411,0,0,0,1.676,2.952,2.465,2.465,0,0,0,2.952-1.676,2.084,2.084,0,0,1,.2-.5c-.155.106-.157.361.013,0,.142-.307.3-.609.456-.906a19.386,19.386,0,0,1,1.1-1.784c.184-.269.381-.528.571-.792-.323.449.064-.08.11-.136.1-.129.209-.256.315-.383q.707-.84,1.48-1.619.736-.741,1.526-1.425c.273-.235.549-.465.831-.69.183-.146.315-.236.05-.041.154-.114.307-.23.463-.342a21.059,21.059,0,0,1,3.405-2.023,2.412,2.412,0,0,0,.861-3.284,2.466,2.466,0,0,0-3.284-.861Z"/><path class="b" d="M287.525,363.9a25.114,25.114,0,0,1-15.348,12.432,2.4,2.4,0,0,0,1.276,4.629,30.949,30.949,0,0,0,18.217-14.638,2.457,2.457,0,0,0-.861-3.284,2.425,2.425,0,0,0-3.284.861Z"/><path class="a" d="M42.657,311.307a29.645,29.645,0,0,1,1.444-7.264c1.068-4.617,23.278-27.924,24.68-29.491,6.878-7.69,14.38-17.023,18.907-22.342a17.722,17.722,0,0,0,2.83-8.527s-.021-.432-.06-1.194c-4.6-20.151.952-45.193,16.461-57.866a10.51,10.51,0,0,1,5.273-2.71c5.092-.556,9.435,4.545,7.308,9.2a12.47,12.47,0,0,1,3.868-2.751,5.822,5.822,0,0,1,8.028,3.664,7.482,7.482,0,0,1-.577,5.42c2.345-3.194,7.419-3.822,10.014-.826.969,1.119,2.012,3.746,1.638,5.235a9.566,9.566,0,0,1-2.141,4.684c2.074-1.472,3.662-.836,5.388-.078,4.665,2.049,3.9,8.96,1.59,13.5-8.116,15.956-17.031,34.24-31.242,42.354a8.4,8.4,0,0,0-.818.894c-11.826,13.975-26.578,65.011-39.017,72.211a15.894,15.894,0,0,1-20.7,2.56c-6-4.326-10.115-11.762-11.746-18.974C43.175,316.308,42.516,314.292,42.657,311.307Z"/><path class="b" d="M121.106,214.748c4.261-5.114,7.889-10.7,11.785-16.085a2.418,2.418,0,0,0-.861-3.284,2.453,2.453,0,0,0-3.283.861c-1.719,2.377-3.369,4.8-5.067,7.195-.994,1.4-2,2.793-3.025,4.17s-1.756,2.324-2.944,3.749a2.467,2.467,0,0,0,0,3.394,2.42,2.42,0,0,0,3.395,0Z"/><path class="b" d="M110.391,205.457c3.344-3.524,6.412-7.327,9.507-11.069.433-.524.864-1.05,1.3-1.573a2.454,2.454,0,0,0,0-3.394,2.428,2.428,0,0,0-3.394,0c-2.727,3.28-5.433,6.578-8.238,9.792-.841.964-1.688,1.922-2.568,2.85a2.4,2.4,0,0,0,3.394,3.394Z"/><path class="b" d="M131.991,220.808c3.438-4.377,7.033-8.63,10.411-13.053a2.4,2.4,0,0,0-.861-3.283,2.472,2.472,0,0,0-3.283.861,1.668,1.668,0,0,0-.216.281c.213-.477.235-.3.063-.082l-.517.66q-.561.712-1.127,1.421-1.326,1.661-2.664,3.314c-1.74,2.156-3.488,4.307-5.2,6.486a2.465,2.465,0,0,0,0,3.395c.864.793,2.566,1.054,3.394,0Z"/><path class="b" d="M94.793,248.667a61.957,61.957,0,0,1-2.393-32.59c1.988-10.518,6.512-20.912,14.494-28.262,2.042-1.88,4.647-4.345,7.641-3.271,2.1.751,3.82,3.177,2.893,5.362a2.445,2.445,0,0,0,.618,3.1,2.411,2.411,0,0,0,3.151-.188c1.628-1.591,3.866-3.271,6.162-2.233,2.034.921,2.342,3.762,1.388,5.658a2.42,2.42,0,0,0,.618,3.1,2.372,2.372,0,0,0,3.151-.188c1.421-1.833,4.187-2.929,6.16-1.3,2.119,1.744,1.634,5-.043,7a2.428,2.428,0,0,0-.188,3.151,2.39,2.39,0,0,0,3.1.618,2.575,2.575,0,0,1,2.966-.078,2.956,2.956,0,0,1,1.833,1.776,6.9,6.9,0,0,1,.4,2.726,12.757,12.757,0,0,1-.59,3.4,46.557,46.557,0,0,1-3.57,7.548c-1.453,2.841-2.925,5.674-4.459,8.473-5.633,10.281-12.326,21.261-22.651,27.432-1.814,1.084-2.768,2.566-4.007,4.339-1,1.427-1.9,2.917-2.766,4.429-2.112,3.7-3.967,7.551-5.754,11.419-4.171,9.026-7.936,18.233-12.019,27.3-3.412,7.576-6.882,15.477-11.922,22.142-.24.317.348-.431-.05.062-.121.151-.241.3-.364.451q-.352.429-.724.843a18.9,18.9,0,0,1-1.437,1.45c-.231.208-.469.407-.712.6.587-.467-.188.11-.339.213-1.028.7-1.765,1.7-2.755,2.459a13.792,13.792,0,0,1-13.858,1.518c-5.226-2.5-9-8.3-11.05-13.527a52.857,52.857,0,0,1-2.192-7.7c-.107-.474-.2-.949-.292-1.426,0-.013-.122-.8-.061-.33-.032-.25-.056-.5-.076-.752a16.658,16.658,0,0,1,.082-3.422,29.785,29.785,0,0,1,.97-4.344c.11-.385.249-.768.34-1.158.147-.623-.294.474.072-.158a35,35,0,0,1,2.018-3.128c.236-.324.477-.644.718-.964.032-.042.456-.593.143-.189.112-.145.226-.29.339-.434q.909-1.158,1.846-2.292c1.327-1.613,2.684-3.2,4.056-4.776,4.617-5.3,9.4-10.454,14.194-15.6,3.613-3.882,7-7.993,10.4-12.061q3.095-3.708,6.172-7.429c1.769-2.124,3.672-4.094,4.773-6.664a17.785,17.785,0,0,0,1.712-7.076c-.069-3.084-4.869-3.095-4.8,0a7.8,7.8,0,0,1-.412,2.559,15.1,15.1,0,0,1-1.548,3.932,22.288,22.288,0,0,1-2.216,2.772q-1.545,1.851-3.083,3.709c-4.529,5.461-9.023,10.975-13.8,16.226-4.376,4.811-8.861,9.518-13.167,14.394-2.877,3.258-5.715,6.556-8.366,10a41.256,41.256,0,0,0-2.617,3.7,16.485,16.485,0,0,0-1.753,4.666,23.687,23.687,0,0,0-.824,8.241A48.283,48.283,0,0,0,41.65,320.4a35.76,35.76,0,0,0,9.814,17.327,18.61,18.61,0,0,0,16.862,4.948,18.061,18.061,0,0,0,7.942-3.892c.518-.436.956-.934,1.44-1.4-.232.225.3-.238.439-.331a17.463,17.463,0,0,0,1.908-1.546,38.4,38.4,0,0,0,6.343-8.45c2.321-3.882,4.336-7.943,6.264-12.031,4.381-9.289,8.266-18.8,12.452-28.178,1.917-4.294,3.884-8.572,6.072-12.737.922-1.756,1.885-3.492,2.929-5.179.441-.714.9-1.419,1.374-2.109q.331-.48.679-.951.166-.225.337-.448c-.382.5.11-.129.183-.219a5.094,5.094,0,0,1,1.014-1.132c-.513.344.493-.216.488-.213q.454-.277.9-.567a45.814,45.814,0,0,0,3.938-2.906,52.217,52.217,0,0,0,6.537-6.443A102.515,102.515,0,0,0,140.7,237.679c1.649-2.9,3.216-5.839,4.749-8.8,1.46-2.819,3.026-5.627,4.322-8.526,2.144-4.8,3.137-11.944-1.842-15.392a7.8,7.8,0,0,0-8.81-.49l2.908,3.769a11.471,11.471,0,0,0,2.918-7.261,9.675,9.675,0,0,0-2.991-6.622c-3.716-3.278-9.835-2.471-12.832,1.4l3.769,2.909c2.091-4.153,1.339-9.943-3.125-12.22-4.35-2.219-8.733-.179-11.963,2.978l3.77,2.908a8.847,8.847,0,0,0-1.425-9.586,9.638,9.638,0,0,0-9.184-3.047c-3.371.706-6.278,3.492-8.642,5.855a46.976,46.976,0,0,0-5.789,7.114c-7.1,10.621-10.219,23.872-10.032,36.551a63,63,0,0,0,3.663,20.727,2.465,2.465,0,0,0,2.953,1.676,2.419,2.419,0,0,0,1.676-2.952Z"/><path class="b" d="M132.373,152.542c-.674-3.476,1.12-6.117,4.372-7.288,3.9-1.405,8.07-.376,12,.35a62.4,62.4,0,0,0,14.427.772,66.814,66.814,0,0,1,6.785-.2,5.966,5.966,0,0,1,4.261,1.646,5.213,5.213,0,0,1-.387,7.117c-2.307,2.063,1.1,5.448,3.395,3.394,3.1-2.776,3.715-7.469,2.122-11.194-2.04-4.769-6.934-5.922-11.7-5.77-5.756.183-11.455.72-17.166-.31-5.039-.909-10.362-2.207-15.342-.315a12.62,12.62,0,0,0-6,4.416,11.062,11.062,0,0,0-1.405,8.657A2.423,2.423,0,0,0,130.7,155.5a2.451,2.451,0,0,0,1.677-2.953Z"/></svg>