<svg width="20" height="21" viewBox="0 0 20 21" fill="none" xmlns="http://www.w3.org/2000/svg">
<path d="M10.0001 7.00006V11.0001L12.0001 13.0001M1.05005 10.0001C1.27414 7.80013 2.30031 5.75968 3.93278 4.26803C5.56525 2.77639 7.68974 1.93795 9.90093 1.9127C12.1121 1.88744 14.2552 2.67713 15.9213 4.1311C17.5874 5.58507 18.6599 7.60155 18.9342 9.7958C19.2085 11.99 18.6654 14.2085 17.4084 16.0278C16.1515 17.8472 14.2687 19.1401 12.1193 19.6599C9.96997 20.1797 7.70446 19.89 5.75504 18.8461C3.80563 17.8022 2.30877 16.0772 1.55005 14.0001M1.05005 19.0001V14.0001H6.05005" stroke="#949494" stroke-width="2" stroke-linecap="round" stroke-linejoin="round"/>
</svg>
