<svg width="16" height="15" viewBox="0 0 16 15" fill="none" xmlns="http://www.w3.org/2000/svg">
<path d="M7.09194 0.968667C7.44936 0.193795 8.55064 0.193793 8.90806 0.968665L10.3048 3.99675C10.4504 4.31256 10.7497 4.53 11.0951 4.57095L14.4066 4.96358C15.254 5.06406 15.5943 6.11144 14.9678 6.69081L12.5195 8.9549C12.2642 9.19103 12.1499 9.54286 12.2177 9.88398L12.8675 13.1547C13.0339 13.9917 12.1429 14.639 11.3983 14.2222L8.48844 12.5934C8.18497 12.4235 7.81503 12.4235 7.51156 12.5934L4.60172 14.2222C3.85711 14.639 2.96615 13.9917 3.13245 13.1547L3.78235 9.88398C3.85012 9.54286 3.73581 9.19103 3.48047 8.95491L1.0322 6.69081C0.4057 6.11144 0.746015 5.06406 1.59341 4.96358L4.9049 4.57095C5.25027 4.53 5.54955 4.31256 5.69522 3.99676L7.09194 0.968667Z" fill="#FF3B00"/>
</svg>
