<svg width="38" height="36" viewBox="0 0 38 36" fill="none" xmlns="http://www.w3.org/2000/svg">
<path d="M16.7299 1.92167C17.6234 -0.0155113 20.3766 -0.015516 21.2701 1.92166L24.7619 9.49189C25.1261 10.2814 25.8743 10.825 26.7377 10.9274L35.0165 11.909C37.135 12.1601 37.9858 14.7786 36.4195 16.227L30.2988 21.8873C29.6605 22.4776 29.3747 23.3572 29.5441 24.2099L31.1689 32.3868C31.5846 34.4792 29.3572 36.0975 27.4957 35.0555L20.2211 30.9835C19.4624 30.5588 18.5376 30.5588 17.7789 30.9835L10.5043 35.0555C8.64277 36.0975 6.41537 34.4792 6.83113 32.3868L8.45586 24.2099C8.62531 23.3572 8.33952 22.4776 7.70118 21.8873L1.5805 16.227C0.0142491 14.7786 0.865036 12.1601 2.98352 11.909L11.2623 10.9274C12.1257 10.825 12.8739 10.2814 13.2381 9.49189L16.7299 1.92167Z" fill="#FF5C00"/>
</svg>
