<svg width="46" height="45" viewBox="0 0 46 45" fill="none" xmlns="http://www.w3.org/2000/svg">
<path d="M20.7299 4.92167C21.6234 2.98449 24.3766 2.98448 25.2701 4.92166L28.7619 12.4919C29.1261 13.2814 29.8743 13.825 30.7377 13.9274L39.0165 14.909C41.135 15.1601 41.9858 17.7786 40.4195 19.227L34.2988 24.8873C33.6605 25.4776 33.3747 26.3572 33.5441 27.2099L35.1689 35.3868C35.5846 37.4792 33.3572 39.0975 31.4957 38.0555L24.2211 33.9835C23.4624 33.5588 22.5376 33.5588 21.7789 33.9835L14.5043 38.0555C12.6428 39.0975 10.4154 37.4792 10.8311 35.3868L12.4559 27.2099C12.6253 26.3572 12.3395 25.4776 11.7012 24.8873L5.5805 19.227C4.01425 17.7786 4.86504 15.1601 6.98352 14.909L15.2623 13.9274C16.1257 13.825 16.8739 13.2814 17.2381 12.4919L20.7299 4.92167Z" fill="#DCDCDC"/>
<mask id="mask0_154_1110" style="mask-type:alpha" maskUnits="userSpaceOnUse" x="4" y="3" width="38" height="36">
<path d="M20.7299 4.92167C21.6234 2.98449 24.3766 2.98448 25.2701 4.92166L28.7619 12.4919C29.1261 13.2814 29.8743 13.825 30.7377 13.9274L39.0165 14.909C41.135 15.1601 41.9858 17.7786 40.4195 19.227L34.2988 24.8873C33.6605 25.4776 33.3747 26.3572 33.5441 27.2099L35.1689 35.3868C35.5846 37.4792 33.3572 39.0975 31.4957 38.0555L24.2211 33.9835C23.4624 33.5588 22.5376 33.5588 21.7789 33.9835L14.5043 38.0555C12.6428 39.0975 10.4154 37.4792 10.8311 35.3868L12.4559 27.2099C12.6253 26.3572 12.3395 25.4776 11.7012 24.8873L5.5805 19.227C4.01425 17.7786 4.86504 15.1601 6.98352 14.909L15.2623 13.9274C16.1257 13.825 16.8739 13.2814 17.2381 12.4919L20.7299 4.92167Z" fill="#FFDF37"/>
</mask>
<g mask="url(#mask0_154_1110)">
<rect x="23" y="2.8125" width="19.6875" height="36.5625" fill="#DCDCDC"/>
<path d="M20.7299 4.92167C21.6234 2.98449 24.3766 2.98448 25.2701 4.92166L28.7619 12.4919C29.1261 13.2814 29.8743 13.825 30.7377 13.9274L39.0165 14.909C41.135 15.1601 41.9858 17.7786 40.4195 19.227L34.2988 24.8873C33.6605 25.4776 33.3747 26.3572 33.5441 27.2099L35.1689 35.3868C35.5846 37.4792 33.3572 39.0975 31.4957 38.0555L24.2211 33.9835C23.4624 33.5588 22.5376 33.5588 21.7789 33.9835L14.5043 38.0555C12.6428 39.0975 10.4154 37.4792 10.8311 35.3868L12.4559 27.2099C12.6253 26.3572 12.3395 25.4776 11.7012 24.8873L5.5805 19.227C4.01425 17.7786 4.86504 15.1601 6.98352 14.909L15.2623 13.9274C16.1257 13.825 16.8739 13.2814 17.2381 12.4919L20.7299 4.92167Z" fill="#FF5C00"/>
<mask id="mask1_154_1110" style="mask-type:alpha" maskUnits="userSpaceOnUse" x="4" y="3" width="38" height="36">
<path d="M20.7299 4.92167C21.6234 2.98449 24.3766 2.98448 25.2701 4.92166L28.7619 12.4919C29.1261 13.2814 29.8743 13.825 30.7377 13.9274L39.0165 14.909C41.135 15.1601 41.9858 17.7786 40.4195 19.227L34.2988 24.8873C33.6605 25.4776 33.3747 26.3572 33.5441 27.2099L35.1689 35.3868C35.5846 37.4792 33.3572 39.0975 31.4957 38.0555L24.2211 33.9835C23.4624 33.5588 22.5376 33.5588 21.7789 33.9835L14.5043 38.0555C12.6428 39.0975 10.4154 37.4792 10.8311 35.3868L12.4559 27.2099C12.6253 26.3572 12.3395 25.4776 11.7012 24.8873L5.5805 19.227C4.01425 17.7786 4.86504 15.1601 6.98352 14.909L15.2623 13.9274C16.1257 13.825 16.8739 13.2814 17.2381 12.4919L20.7299 4.92167Z" fill="#FFDF37"/>
</mask>
<g mask="url(#mask1_154_1110)">
<rect x="23" y="2.8125" width="19.6875" height="36.5625" fill="#DCDCDC"/>
</g>
</g>
</svg>
